<?xml version="1.0" encoding="utf-8"?>
<svg xmlns="http://www.w3.org/2000/svg" xmlns:xlink="http://www.w3.org/1999/xlink" width="600" height="400" viewBox="0 0 2400 1600">
<defs>
  <clipPath id="clip360">
    <rect x="0" y="0" width="2400" height="1600"/>
  </clipPath>
</defs>
<path clip-path="url(#clip360)" d="M0 1600 L2400 1600 L2400 0 L0 0  Z" fill="#ffffff" fill-rule="evenodd" fill-opacity="1"/>
<defs>
  <clipPath id="clip361">
    <rect x="480" y="0" width="1681" height="1600"/>
  </clipPath>
</defs>
<path clip-path="url(#clip360)" d="M125.866 1499.41 L2352.76 1499.41 L2352.76 47.2441 L125.866 47.2441  Z" fill="#ffffff" fill-rule="evenodd" fill-opacity="1"/>
<defs>
  <clipPath id="clip362">
    <rect x="125" y="47" width="2228" height="1453"/>
  </clipPath>
</defs>
<polyline clip-path="url(#clip362)" style="stroke:#000000; stroke-linecap:round; stroke-linejoin:round; stroke-width:2; stroke-opacity:0.1; fill:none" points="203.183,1499.41 203.183,47.2441 "/>
<polyline clip-path="url(#clip362)" style="stroke:#000000; stroke-linecap:round; stroke-linejoin:round; stroke-width:2; stroke-opacity:0.1; fill:none" points="898.699,1499.41 898.699,47.2441 "/>
<polyline clip-path="url(#clip362)" style="stroke:#000000; stroke-linecap:round; stroke-linejoin:round; stroke-width:2; stroke-opacity:0.1; fill:none" points="1595.17,1499.41 1595.17,47.2441 "/>
<polyline clip-path="url(#clip362)" style="stroke:#000000; stroke-linecap:round; stroke-linejoin:round; stroke-width:2; stroke-opacity:0.1; fill:none" points="2290.68,1499.41 2290.68,47.2441 "/>
<polyline clip-path="url(#clip360)" style="stroke:#000000; stroke-linecap:round; stroke-linejoin:round; stroke-width:4; stroke-opacity:1; fill:none" points="125.866,1499.41 2352.76,1499.41 "/>
<polyline clip-path="url(#clip360)" style="stroke:#000000; stroke-linecap:round; stroke-linejoin:round; stroke-width:4; stroke-opacity:1; fill:none" points="203.183,1499.41 203.183,1480.51 "/>
<polyline clip-path="url(#clip360)" style="stroke:#000000; stroke-linecap:round; stroke-linejoin:round; stroke-width:4; stroke-opacity:1; fill:none" points="898.699,1499.41 898.699,1480.51 "/>
<polyline clip-path="url(#clip360)" style="stroke:#000000; stroke-linecap:round; stroke-linejoin:round; stroke-width:4; stroke-opacity:1; fill:none" points="1595.17,1499.41 1595.17,1480.51 "/>
<polyline clip-path="url(#clip360)" style="stroke:#000000; stroke-linecap:round; stroke-linejoin:round; stroke-width:4; stroke-opacity:1; fill:none" points="2290.68,1499.41 2290.68,1480.51 "/>
<path clip-path="url(#clip360)" d="M123.055 1543.15 L133.254 1543.15 L133.254 1545.61 L119.539 1545.61 L119.539 1543.15 Q121.203 1541.43 124.067 1538.53 Q126.946 1535.63 127.684 1534.79 Q129.088 1533.21 129.637 1532.12 Q130.202 1531.02 130.202 1529.97 Q130.202 1528.25 128.986 1527.16 Q127.785 1526.08 125.847 1526.08 Q124.472 1526.08 122.939 1526.55 Q121.42 1527.03 119.684 1528 L119.684 1525.05 Q121.449 1524.34 122.982 1523.98 Q124.516 1523.62 125.789 1523.62 Q129.145 1523.62 131.142 1525.3 Q133.138 1526.97 133.138 1529.78 Q133.138 1531.11 132.632 1532.31 Q132.14 1533.5 130.824 1535.12 Q130.462 1535.54 128.523 1537.55 Q126.585 1539.55 123.055 1543.15 Z" fill="#000000" fill-rule="nonzero" fill-opacity="1" /><path clip-path="url(#clip360)" d="M145.638 1525.93 Q143.381 1525.93 142.239 1528.16 Q141.11 1530.37 141.11 1534.83 Q141.11 1539.27 142.239 1541.5 Q143.381 1543.71 145.638 1543.71 Q147.91 1543.71 149.038 1541.5 Q150.181 1539.27 150.181 1534.83 Q150.181 1530.37 149.038 1528.16 Q147.91 1525.93 145.638 1525.93 M145.638 1523.62 Q149.27 1523.62 151.179 1526.5 Q153.104 1529.36 153.104 1534.83 Q153.104 1540.28 151.179 1543.16 Q149.27 1546.03 145.638 1546.03 Q142.007 1546.03 140.083 1543.16 Q138.173 1540.28 138.173 1534.83 Q138.173 1529.36 140.083 1526.5 Q142.007 1523.62 145.638 1523.62 Z" fill="#000000" fill-rule="nonzero" fill-opacity="1" /><path clip-path="url(#clip360)" d="M158.746 1543.15 L163.52 1543.15 L163.52 1526.67 L158.326 1527.71 L158.326 1525.05 L163.491 1524.01 L166.414 1524.01 L166.414 1543.15 L171.188 1543.15 L171.188 1545.61 L158.746 1545.61 L158.746 1543.15 Z" fill="#000000" fill-rule="nonzero" fill-opacity="1" /><path clip-path="url(#clip360)" d="M185.12 1526.55 L177.742 1538.08 L185.12 1538.08 L185.12 1526.55 M184.353 1524.01 L188.028 1524.01 L188.028 1538.08 L191.11 1538.08 L191.11 1540.52 L188.028 1540.52 L188.028 1545.61 L185.12 1545.61 L185.12 1540.52 L175.369 1540.52 L175.369 1537.69 L184.353 1524.01 Z" fill="#000000" fill-rule="nonzero" fill-opacity="1" /><path clip-path="url(#clip360)" d="M194.22 1536.31 L202.018 1536.31 L202.018 1538.68 L194.22 1538.68 L194.22 1536.31 Z" fill="#000000" fill-rule="nonzero" fill-opacity="1" /><path clip-path="url(#clip360)" d="M212.883 1525.93 Q210.626 1525.93 209.484 1528.16 Q208.355 1530.37 208.355 1534.83 Q208.355 1539.27 209.484 1541.5 Q210.626 1543.71 212.883 1543.71 Q215.155 1543.71 216.283 1541.5 Q217.426 1539.27 217.426 1534.83 Q217.426 1530.37 216.283 1528.16 Q215.155 1525.93 212.883 1525.93 M212.883 1523.62 Q216.515 1523.62 218.424 1526.5 Q220.349 1529.36 220.349 1534.83 Q220.349 1540.28 218.424 1543.16 Q216.515 1546.03 212.883 1546.03 Q209.252 1546.03 207.328 1543.16 Q205.418 1540.28 205.418 1534.83 Q205.418 1529.36 207.328 1526.5 Q209.252 1523.62 212.883 1523.62 Z" fill="#000000" fill-rule="nonzero" fill-opacity="1" /><path clip-path="url(#clip360)" d="M225.991 1543.15 L230.765 1543.15 L230.765 1526.67 L225.571 1527.71 L225.571 1525.05 L230.736 1524.01 L233.659 1524.01 L233.659 1543.15 L238.433 1543.15 L238.433 1545.61 L225.991 1545.61 L225.991 1543.15 Z" fill="#000000" fill-rule="nonzero" fill-opacity="1" /><path clip-path="url(#clip360)" d="M242.614 1536.31 L250.412 1536.31 L250.412 1538.68 L242.614 1538.68 L242.614 1536.31 Z" fill="#000000" fill-rule="nonzero" fill-opacity="1" /><path clip-path="url(#clip360)" d="M261.277 1525.93 Q259.02 1525.93 257.877 1528.16 Q256.749 1530.37 256.749 1534.83 Q256.749 1539.27 257.877 1541.5 Q259.02 1543.71 261.277 1543.71 Q263.549 1543.71 264.677 1541.5 Q265.82 1539.27 265.82 1534.83 Q265.82 1530.37 264.677 1528.16 Q263.549 1525.93 261.277 1525.93 M261.277 1523.62 Q264.909 1523.62 266.818 1526.5 Q268.742 1529.36 268.742 1534.83 Q268.742 1540.28 266.818 1543.16 Q264.909 1546.03 261.277 1546.03 Q257.646 1546.03 255.722 1543.16 Q253.812 1540.28 253.812 1534.83 Q253.812 1529.36 255.722 1526.5 Q257.646 1523.62 261.277 1523.62 Z" fill="#000000" fill-rule="nonzero" fill-opacity="1" /><path clip-path="url(#clip360)" d="M274.385 1543.15 L279.159 1543.15 L279.159 1526.67 L273.965 1527.71 L273.965 1525.05 L279.13 1524.01 L282.053 1524.01 L282.053 1543.15 L286.827 1543.15 L286.827 1545.61 L274.385 1545.61 L274.385 1543.15 Z" fill="#000000" fill-rule="nonzero" fill-opacity="1" /><path clip-path="url(#clip360)" d="M818.571 1543.15 L828.77 1543.15 L828.77 1545.61 L815.055 1545.61 L815.055 1543.15 Q816.719 1541.43 819.583 1538.53 Q822.462 1535.63 823.2 1534.79 Q824.603 1533.21 825.153 1532.12 Q825.717 1531.02 825.717 1529.97 Q825.717 1528.25 824.502 1527.16 Q823.301 1526.08 821.363 1526.08 Q819.988 1526.08 818.455 1526.55 Q816.936 1527.03 815.2 1528 L815.2 1525.05 Q816.965 1524.34 818.498 1523.98 Q820.032 1523.62 821.305 1523.62 Q824.661 1523.62 826.658 1525.3 Q828.654 1526.97 828.654 1529.78 Q828.654 1531.11 828.148 1532.31 Q827.656 1533.5 826.34 1535.12 Q825.978 1535.54 824.039 1537.55 Q822.101 1539.55 818.571 1543.15 Z" fill="#000000" fill-rule="nonzero" fill-opacity="1" /><path clip-path="url(#clip360)" d="M841.154 1525.93 Q838.897 1525.93 837.754 1528.16 Q836.626 1530.37 836.626 1534.83 Q836.626 1539.27 837.754 1541.5 Q838.897 1543.71 841.154 1543.71 Q843.426 1543.71 844.554 1541.5 Q845.697 1539.27 845.697 1534.83 Q845.697 1530.37 844.554 1528.16 Q843.426 1525.93 841.154 1525.93 M841.154 1523.62 Q844.786 1523.62 846.695 1526.5 Q848.62 1529.36 848.62 1534.83 Q848.62 1540.28 846.695 1543.16 Q844.786 1546.03 841.154 1546.03 Q837.523 1546.03 835.599 1543.16 Q833.689 1540.28 833.689 1534.83 Q833.689 1529.36 835.599 1526.5 Q837.523 1523.62 841.154 1523.62 Z" fill="#000000" fill-rule="nonzero" fill-opacity="1" /><path clip-path="url(#clip360)" d="M854.262 1543.15 L859.036 1543.15 L859.036 1526.67 L853.842 1527.71 L853.842 1525.05 L859.007 1524.01 L861.93 1524.01 L861.93 1543.15 L866.704 1543.15 L866.704 1545.61 L854.262 1545.61 L854.262 1543.15 Z" fill="#000000" fill-rule="nonzero" fill-opacity="1" /><path clip-path="url(#clip360)" d="M879.218 1533.64 Q877.251 1533.64 876.093 1534.99 Q874.95 1536.33 874.95 1538.68 Q874.95 1541.01 876.093 1542.37 Q877.251 1543.71 879.218 1543.71 Q881.186 1543.71 882.329 1542.37 Q883.486 1541.01 883.486 1538.68 Q883.486 1536.33 882.329 1534.99 Q881.186 1533.64 879.218 1533.64 M885.02 1524.49 L885.02 1527.15 Q883.92 1526.63 882.792 1526.35 Q881.678 1526.08 880.578 1526.08 Q877.685 1526.08 876.151 1528.03 Q874.632 1529.98 874.415 1533.93 Q875.269 1532.67 876.556 1532.01 Q877.844 1531.33 879.392 1531.33 Q882.647 1531.33 884.528 1533.31 Q886.423 1535.28 886.423 1538.68 Q886.423 1542.01 884.456 1544.02 Q882.488 1546.03 879.218 1546.03 Q875.471 1546.03 873.489 1543.16 Q871.507 1540.28 871.507 1534.83 Q871.507 1529.71 873.938 1526.67 Q876.368 1523.62 880.463 1523.62 Q881.562 1523.62 882.676 1523.83 Q883.805 1524.05 885.02 1524.49 Z" fill="#000000" fill-rule="nonzero" fill-opacity="1" /><path clip-path="url(#clip360)" d="M889.736 1536.31 L897.534 1536.31 L897.534 1538.68 L889.736 1538.68 L889.736 1536.31 Z" fill="#000000" fill-rule="nonzero" fill-opacity="1" /><path clip-path="url(#clip360)" d="M908.399 1525.93 Q906.142 1525.93 904.999 1528.16 Q903.871 1530.37 903.871 1534.83 Q903.871 1539.27 904.999 1541.5 Q906.142 1543.71 908.399 1543.71 Q910.671 1543.71 911.799 1541.5 Q912.942 1539.27 912.942 1534.83 Q912.942 1530.37 911.799 1528.16 Q910.671 1525.93 908.399 1525.93 M908.399 1523.62 Q912.031 1523.62 913.94 1526.5 Q915.865 1529.36 915.865 1534.83 Q915.865 1540.28 913.94 1543.16 Q912.031 1546.03 908.399 1546.03 Q904.768 1546.03 902.844 1543.16 Q900.934 1540.28 900.934 1534.83 Q900.934 1529.36 902.844 1526.5 Q904.768 1523.62 908.399 1523.62 Z" fill="#000000" fill-rule="nonzero" fill-opacity="1" /><path clip-path="url(#clip360)" d="M921.507 1543.15 L926.281 1543.15 L926.281 1526.67 L921.087 1527.71 L921.087 1525.05 L926.252 1524.01 L929.175 1524.01 L929.175 1543.15 L933.949 1543.15 L933.949 1545.61 L921.507 1545.61 L921.507 1543.15 Z" fill="#000000" fill-rule="nonzero" fill-opacity="1" /><path clip-path="url(#clip360)" d="M938.13 1536.31 L945.928 1536.31 L945.928 1538.68 L938.13 1538.68 L938.13 1536.31 Z" fill="#000000" fill-rule="nonzero" fill-opacity="1" /><path clip-path="url(#clip360)" d="M956.793 1525.93 Q954.536 1525.93 953.393 1528.16 Q952.265 1530.37 952.265 1534.83 Q952.265 1539.27 953.393 1541.5 Q954.536 1543.71 956.793 1543.71 Q959.065 1543.71 960.193 1541.5 Q961.336 1539.27 961.336 1534.83 Q961.336 1530.37 960.193 1528.16 Q959.065 1525.93 956.793 1525.93 M956.793 1523.62 Q960.425 1523.62 962.334 1526.5 Q964.258 1529.36 964.258 1534.83 Q964.258 1540.28 962.334 1543.16 Q960.425 1546.03 956.793 1546.03 Q953.162 1546.03 951.238 1543.16 Q949.328 1540.28 949.328 1534.83 Q949.328 1529.36 951.238 1526.5 Q953.162 1523.62 956.793 1523.62 Z" fill="#000000" fill-rule="nonzero" fill-opacity="1" /><path clip-path="url(#clip360)" d="M969.901 1543.15 L974.675 1543.15 L974.675 1526.67 L969.481 1527.71 L969.481 1525.05 L974.646 1524.01 L977.569 1524.01 L977.569 1543.15 L982.343 1543.15 L982.343 1545.61 L969.901 1545.61 L969.901 1543.15 Z" fill="#000000" fill-rule="nonzero" fill-opacity="1" /><path clip-path="url(#clip360)" d="M1515.04 1543.15 L1525.24 1543.15 L1525.24 1545.61 L1511.52 1545.61 L1511.52 1543.15 Q1513.19 1541.43 1516.05 1538.53 Q1518.93 1535.63 1519.67 1534.79 Q1521.07 1533.21 1521.62 1532.12 Q1522.19 1531.02 1522.19 1529.97 Q1522.19 1528.25 1520.97 1527.16 Q1519.77 1526.08 1517.83 1526.08 Q1516.46 1526.08 1514.92 1526.55 Q1513.4 1527.03 1511.67 1528 L1511.67 1525.05 Q1513.43 1524.34 1514.97 1523.98 Q1516.5 1523.62 1517.77 1523.62 Q1521.13 1523.62 1523.13 1525.3 Q1525.12 1526.97 1525.12 1529.78 Q1525.12 1531.11 1524.62 1532.31 Q1524.12 1533.5 1522.81 1535.12 Q1522.45 1535.54 1520.51 1537.55 Q1518.57 1539.55 1515.04 1543.15 Z" fill="#000000" fill-rule="nonzero" fill-opacity="1" /><path clip-path="url(#clip360)" d="M1537.62 1525.93 Q1535.37 1525.93 1534.22 1528.16 Q1533.09 1530.37 1533.09 1534.83 Q1533.09 1539.27 1534.22 1541.5 Q1535.37 1543.71 1537.62 1543.71 Q1539.89 1543.71 1541.02 1541.5 Q1542.17 1539.27 1542.17 1534.83 Q1542.17 1530.37 1541.02 1528.16 Q1539.89 1525.93 1537.62 1525.93 M1537.62 1523.62 Q1541.25 1523.62 1543.16 1526.5 Q1545.09 1529.36 1545.09 1534.83 Q1545.09 1540.28 1543.16 1543.16 Q1541.25 1546.03 1537.62 1546.03 Q1533.99 1546.03 1532.07 1543.16 Q1530.16 1540.28 1530.16 1534.83 Q1530.16 1529.36 1532.07 1526.5 Q1533.99 1523.62 1537.62 1523.62 Z" fill="#000000" fill-rule="nonzero" fill-opacity="1" /><path clip-path="url(#clip360)" d="M1550.73 1543.15 L1555.5 1543.15 L1555.5 1526.67 L1550.31 1527.71 L1550.31 1525.05 L1555.48 1524.01 L1558.4 1524.01 L1558.4 1543.15 L1563.17 1543.15 L1563.17 1545.61 L1550.73 1545.61 L1550.73 1543.15 Z" fill="#000000" fill-rule="nonzero" fill-opacity="1" /><path clip-path="url(#clip360)" d="M1575.33 1535.35 Q1573.24 1535.35 1572.04 1536.46 Q1570.85 1537.58 1570.85 1539.53 Q1570.85 1541.48 1572.04 1542.6 Q1573.24 1543.71 1575.33 1543.71 Q1577.41 1543.71 1578.61 1542.6 Q1579.81 1541.47 1579.81 1539.53 Q1579.81 1537.58 1578.61 1536.46 Q1577.42 1535.35 1575.33 1535.35 M1572.4 1534.11 Q1570.52 1533.64 1569.47 1532.36 Q1568.42 1531.07 1568.42 1529.22 Q1568.42 1526.63 1570.26 1525.12 Q1572.11 1523.62 1575.33 1523.62 Q1578.55 1523.62 1580.39 1525.12 Q1582.23 1526.63 1582.23 1529.22 Q1582.23 1531.07 1581.17 1532.36 Q1580.13 1533.64 1578.26 1534.11 Q1580.37 1534.6 1581.55 1536.03 Q1582.73 1537.46 1582.73 1539.53 Q1582.73 1542.67 1580.81 1544.35 Q1578.9 1546.03 1575.33 1546.03 Q1571.75 1546.03 1569.83 1544.35 Q1567.92 1542.67 1567.92 1539.53 Q1567.92 1537.46 1569.1 1536.03 Q1570.29 1534.6 1572.4 1534.11 M1571.33 1529.49 Q1571.33 1531.17 1572.37 1532.11 Q1573.43 1533.05 1575.33 1533.05 Q1577.21 1533.05 1578.26 1532.11 Q1579.33 1531.17 1579.33 1529.49 Q1579.33 1527.81 1578.26 1526.87 Q1577.21 1525.93 1575.33 1525.93 Q1573.43 1525.93 1572.37 1526.87 Q1571.33 1527.81 1571.33 1529.49 Z" fill="#000000" fill-rule="nonzero" fill-opacity="1" /><path clip-path="url(#clip360)" d="M1586.2 1536.31 L1594 1536.31 L1594 1538.68 L1586.2 1538.68 L1586.2 1536.31 Z" fill="#000000" fill-rule="nonzero" fill-opacity="1" /><path clip-path="url(#clip360)" d="M1604.87 1525.93 Q1602.61 1525.93 1601.47 1528.16 Q1600.34 1530.37 1600.34 1534.83 Q1600.34 1539.27 1601.47 1541.5 Q1602.61 1543.71 1604.87 1543.71 Q1607.14 1543.71 1608.27 1541.5 Q1609.41 1539.27 1609.41 1534.83 Q1609.41 1530.37 1608.27 1528.16 Q1607.14 1525.93 1604.87 1525.93 M1604.87 1523.62 Q1608.5 1523.62 1610.41 1526.5 Q1612.33 1529.36 1612.33 1534.83 Q1612.33 1540.28 1610.41 1543.16 Q1608.5 1546.03 1604.87 1546.03 Q1601.24 1546.03 1599.31 1543.16 Q1597.4 1540.28 1597.4 1534.83 Q1597.4 1529.36 1599.31 1526.5 Q1601.24 1523.62 1604.87 1523.62 Z" fill="#000000" fill-rule="nonzero" fill-opacity="1" /><path clip-path="url(#clip360)" d="M1617.98 1543.15 L1622.75 1543.15 L1622.75 1526.67 L1617.56 1527.71 L1617.56 1525.05 L1622.72 1524.01 L1625.64 1524.01 L1625.64 1543.15 L1630.42 1543.15 L1630.42 1545.61 L1617.98 1545.61 L1617.98 1543.15 Z" fill="#000000" fill-rule="nonzero" fill-opacity="1" /><path clip-path="url(#clip360)" d="M1634.6 1536.31 L1642.4 1536.31 L1642.4 1538.68 L1634.6 1538.68 L1634.6 1536.31 Z" fill="#000000" fill-rule="nonzero" fill-opacity="1" /><path clip-path="url(#clip360)" d="M1653.26 1525.93 Q1651 1525.93 1649.86 1528.16 Q1648.73 1530.37 1648.73 1534.83 Q1648.73 1539.27 1649.86 1541.5 Q1651 1543.71 1653.26 1543.71 Q1655.53 1543.71 1656.66 1541.5 Q1657.8 1539.27 1657.8 1534.83 Q1657.8 1530.37 1656.66 1528.16 Q1655.53 1525.93 1653.26 1525.93 M1653.26 1523.62 Q1656.89 1523.62 1658.8 1526.5 Q1660.73 1529.36 1660.73 1534.83 Q1660.73 1540.28 1658.8 1543.16 Q1656.89 1546.03 1653.26 1546.03 Q1649.63 1546.03 1647.71 1543.16 Q1645.8 1540.28 1645.8 1534.83 Q1645.8 1529.36 1647.71 1526.5 Q1649.63 1523.62 1653.26 1523.62 Z" fill="#000000" fill-rule="nonzero" fill-opacity="1" /><path clip-path="url(#clip360)" d="M1666.37 1543.15 L1671.14 1543.15 L1671.14 1526.67 L1665.95 1527.71 L1665.95 1525.05 L1671.11 1524.01 L1674.04 1524.01 L1674.04 1543.15 L1678.81 1543.15 L1678.81 1545.61 L1666.37 1545.61 L1666.37 1543.15 Z" fill="#000000" fill-rule="nonzero" fill-opacity="1" /><path clip-path="url(#clip360)" d="M2210.56 1543.15 L2220.75 1543.15 L2220.75 1545.61 L2207.04 1545.61 L2207.04 1543.15 Q2208.7 1541.43 2211.57 1538.53 Q2214.45 1535.63 2215.18 1534.79 Q2216.59 1533.21 2217.14 1532.12 Q2217.7 1531.02 2217.7 1529.97 Q2217.7 1528.25 2216.49 1527.16 Q2215.29 1526.08 2213.35 1526.08 Q2211.97 1526.08 2210.44 1526.55 Q2208.92 1527.03 2207.18 1528 L2207.18 1525.05 Q2208.95 1524.34 2210.48 1523.98 Q2212.02 1523.62 2213.29 1523.62 Q2216.65 1523.62 2218.64 1525.3 Q2220.64 1526.97 2220.64 1529.78 Q2220.64 1531.11 2220.13 1532.31 Q2219.64 1533.5 2218.32 1535.12 Q2217.96 1535.54 2216.02 1537.55 Q2214.09 1539.55 2210.56 1543.15 Z" fill="#000000" fill-rule="nonzero" fill-opacity="1" /><path clip-path="url(#clip360)" d="M2233.14 1525.93 Q2230.88 1525.93 2229.74 1528.16 Q2228.61 1530.37 2228.61 1534.83 Q2228.61 1539.27 2229.74 1541.5 Q2230.88 1543.71 2233.14 1543.71 Q2235.41 1543.71 2236.54 1541.5 Q2237.68 1539.27 2237.68 1534.83 Q2237.68 1530.37 2236.54 1528.16 Q2235.41 1525.93 2233.14 1525.93 M2233.14 1523.62 Q2236.77 1523.62 2238.68 1526.5 Q2240.6 1529.36 2240.6 1534.83 Q2240.6 1540.28 2238.68 1543.16 Q2236.77 1546.03 2233.14 1546.03 Q2229.51 1546.03 2227.58 1543.16 Q2225.67 1540.28 2225.67 1534.83 Q2225.67 1529.36 2227.58 1526.5 Q2229.51 1523.62 2233.14 1523.62 Z" fill="#000000" fill-rule="nonzero" fill-opacity="1" /><path clip-path="url(#clip360)" d="M2248.26 1543.15 L2258.46 1543.15 L2258.46 1545.61 L2244.74 1545.61 L2244.74 1543.15 Q2246.41 1541.43 2249.27 1538.53 Q2252.15 1535.63 2252.89 1534.79 Q2254.29 1533.21 2254.84 1532.12 Q2255.4 1531.02 2255.4 1529.97 Q2255.4 1528.25 2254.19 1527.16 Q2252.99 1526.08 2251.05 1526.08 Q2249.68 1526.08 2248.14 1526.55 Q2246.62 1527.03 2244.89 1528 L2244.89 1525.05 Q2246.65 1524.34 2248.19 1523.98 Q2249.72 1523.62 2250.99 1523.62 Q2254.35 1523.62 2256.34 1525.3 Q2258.34 1526.97 2258.34 1529.78 Q2258.34 1531.11 2257.83 1532.31 Q2257.34 1533.5 2256.03 1535.12 Q2255.66 1535.54 2253.73 1537.55 Q2251.79 1539.55 2248.26 1543.15 Z" fill="#000000" fill-rule="nonzero" fill-opacity="1" /><path clip-path="url(#clip360)" d="M2270.84 1525.93 Q2268.58 1525.93 2267.44 1528.16 Q2266.31 1530.37 2266.31 1534.83 Q2266.31 1539.27 2267.44 1541.5 Q2268.58 1543.71 2270.84 1543.71 Q2273.11 1543.71 2274.24 1541.5 Q2275.38 1539.27 2275.38 1534.83 Q2275.38 1530.37 2274.24 1528.16 Q2273.11 1525.93 2270.84 1525.93 M2270.84 1523.62 Q2274.47 1523.62 2276.38 1526.5 Q2278.31 1529.36 2278.31 1534.83 Q2278.31 1540.28 2276.38 1543.16 Q2274.47 1546.03 2270.84 1546.03 Q2267.21 1546.03 2265.29 1543.16 Q2263.38 1540.28 2263.38 1534.83 Q2263.38 1529.36 2265.29 1526.5 Q2267.21 1523.62 2270.84 1523.62 Z" fill="#000000" fill-rule="nonzero" fill-opacity="1" /><path clip-path="url(#clip360)" d="M2281.72 1536.31 L2289.52 1536.31 L2289.52 1538.68 L2281.72 1538.68 L2281.72 1536.31 Z" fill="#000000" fill-rule="nonzero" fill-opacity="1" /><path clip-path="url(#clip360)" d="M2300.38 1525.93 Q2298.13 1525.93 2296.98 1528.16 Q2295.86 1530.37 2295.86 1534.83 Q2295.86 1539.27 2296.98 1541.5 Q2298.13 1543.71 2300.38 1543.71 Q2302.66 1543.71 2303.78 1541.5 Q2304.93 1539.27 2304.93 1534.83 Q2304.93 1530.37 2303.78 1528.16 Q2302.66 1525.93 2300.38 1525.93 M2300.38 1523.62 Q2304.02 1523.62 2305.93 1526.5 Q2307.85 1529.36 2307.85 1534.83 Q2307.85 1540.28 2305.93 1543.16 Q2304.02 1546.03 2300.38 1546.03 Q2296.75 1546.03 2294.83 1543.16 Q2292.92 1540.28 2292.92 1534.83 Q2292.92 1529.36 2294.83 1526.5 Q2296.75 1523.62 2300.38 1523.62 Z" fill="#000000" fill-rule="nonzero" fill-opacity="1" /><path clip-path="url(#clip360)" d="M2313.49 1543.15 L2318.27 1543.15 L2318.27 1526.67 L2313.07 1527.71 L2313.07 1525.05 L2318.24 1524.01 L2321.16 1524.01 L2321.16 1543.15 L2325.93 1543.15 L2325.93 1545.61 L2313.49 1545.61 L2313.49 1543.15 Z" fill="#000000" fill-rule="nonzero" fill-opacity="1" /><path clip-path="url(#clip360)" d="M2330.11 1536.31 L2337.91 1536.31 L2337.91 1538.68 L2330.11 1538.68 L2330.11 1536.31 Z" fill="#000000" fill-rule="nonzero" fill-opacity="1" /><path clip-path="url(#clip360)" d="M2348.78 1525.93 Q2346.52 1525.93 2345.38 1528.16 Q2344.25 1530.37 2344.25 1534.83 Q2344.25 1539.27 2345.38 1541.5 Q2346.52 1543.71 2348.78 1543.71 Q2351.05 1543.71 2352.18 1541.5 Q2353.32 1539.27 2353.32 1534.83 Q2353.32 1530.37 2352.18 1528.16 Q2351.05 1525.93 2348.78 1525.93 M2348.78 1523.62 Q2352.41 1523.62 2354.32 1526.5 Q2356.24 1529.36 2356.24 1534.83 Q2356.24 1540.28 2354.32 1543.16 Q2352.41 1546.03 2348.78 1546.03 Q2345.15 1546.03 2343.22 1543.16 Q2341.31 1540.28 2341.31 1534.83 Q2341.31 1529.36 2343.22 1526.5 Q2345.15 1523.62 2348.78 1523.62 Z" fill="#000000" fill-rule="nonzero" fill-opacity="1" /><path clip-path="url(#clip360)" d="M2361.89 1543.15 L2366.66 1543.15 L2366.66 1526.67 L2361.47 1527.71 L2361.47 1525.05 L2366.63 1524.01 L2369.55 1524.01 L2369.55 1543.15 L2374.33 1543.15 L2374.33 1545.61 L2361.89 1545.61 L2361.89 1543.15 Z" fill="#000000" fill-rule="nonzero" fill-opacity="1" /><polyline clip-path="url(#clip362)" style="stroke:#000000; stroke-linecap:round; stroke-linejoin:round; stroke-width:2; stroke-opacity:0.1; fill:none" points="125.866,1427.96 2352.76,1427.96 "/>
<polyline clip-path="url(#clip362)" style="stroke:#000000; stroke-linecap:round; stroke-linejoin:round; stroke-width:2; stroke-opacity:0.1; fill:none" points="125.866,1123.42 2352.76,1123.42 "/>
<polyline clip-path="url(#clip362)" style="stroke:#000000; stroke-linecap:round; stroke-linejoin:round; stroke-width:2; stroke-opacity:0.1; fill:none" points="125.866,818.885 2352.76,818.885 "/>
<polyline clip-path="url(#clip362)" style="stroke:#000000; stroke-linecap:round; stroke-linejoin:round; stroke-width:2; stroke-opacity:0.1; fill:none" points="125.866,514.348 2352.76,514.348 "/>
<polyline clip-path="url(#clip362)" style="stroke:#000000; stroke-linecap:round; stroke-linejoin:round; stroke-width:2; stroke-opacity:0.1; fill:none" points="125.866,209.811 2352.76,209.811 "/>
<polyline clip-path="url(#clip360)" style="stroke:#000000; stroke-linecap:round; stroke-linejoin:round; stroke-width:4; stroke-opacity:1; fill:none" points="125.866,1499.41 125.866,47.2441 "/>
<polyline clip-path="url(#clip360)" style="stroke:#000000; stroke-linecap:round; stroke-linejoin:round; stroke-width:4; stroke-opacity:1; fill:none" points="125.866,1427.96 144.764,1427.96 "/>
<polyline clip-path="url(#clip360)" style="stroke:#000000; stroke-linecap:round; stroke-linejoin:round; stroke-width:4; stroke-opacity:1; fill:none" points="125.866,1123.42 144.764,1123.42 "/>
<polyline clip-path="url(#clip360)" style="stroke:#000000; stroke-linecap:round; stroke-linejoin:round; stroke-width:4; stroke-opacity:1; fill:none" points="125.866,818.885 144.764,818.885 "/>
<polyline clip-path="url(#clip360)" style="stroke:#000000; stroke-linecap:round; stroke-linejoin:round; stroke-width:4; stroke-opacity:1; fill:none" points="125.866,514.348 144.764,514.348 "/>
<polyline clip-path="url(#clip360)" style="stroke:#000000; stroke-linecap:round; stroke-linejoin:round; stroke-width:4; stroke-opacity:1; fill:none" points="125.866,209.811 144.764,209.811 "/>
<path clip-path="url(#clip360)" d="M50.9921 1428.24 L69.5395 1428.24 L69.5395 1430.7 L50.9921 1430.7 L50.9921 1428.24 Z" fill="#000000" fill-rule="nonzero" fill-opacity="1" /><path clip-path="url(#clip360)" d="M83.8768 1419.7 L76.4984 1431.24 L83.8768 1431.24 L83.8768 1419.7 M83.11 1417.16 L86.7848 1417.16 L86.7848 1431.24 L89.8663 1431.24 L89.8663 1433.67 L86.7848 1433.67 L86.7848 1438.76 L83.8768 1438.76 L83.8768 1433.67 L74.1257 1433.67 L74.1257 1430.84 L83.11 1417.16 Z" fill="#000000" fill-rule="nonzero" fill-opacity="1" /><path clip-path="url(#clip360)" d="M52.2942 1123.7 L70.8416 1123.7 L70.8416 1126.16 L52.2942 1126.16 L52.2942 1123.7 Z" fill="#000000" fill-rule="nonzero" fill-opacity="1" /><path clip-path="url(#clip360)" d="M79.6667 1131.76 L89.8663 1131.76 L89.8663 1134.22 L76.1511 1134.22 L76.1511 1131.76 Q77.8149 1130.04 80.6795 1127.15 Q83.5585 1124.24 84.2963 1123.4 Q85.6997 1121.82 86.2495 1120.74 Q86.8137 1119.64 86.8137 1118.58 Q86.8137 1116.86 85.5984 1115.78 Q84.3976 1114.69 82.459 1114.69 Q81.0846 1114.69 79.551 1115.17 Q78.0319 1115.65 76.2958 1116.61 L76.2958 1113.66 Q78.0608 1112.95 79.5944 1112.59 Q81.128 1112.23 82.4011 1112.23 Q85.7576 1112.23 87.7541 1113.91 Q89.7506 1115.59 89.7506 1118.39 Q89.7506 1119.72 89.2442 1120.93 Q88.7523 1122.11 87.4358 1123.73 Q87.0741 1124.15 85.1355 1126.16 Q83.1968 1128.16 79.6667 1131.76 Z" fill="#000000" fill-rule="nonzero" fill-opacity="1" /><path clip-path="url(#clip360)" d="M82.4011 810.009 Q80.1442 810.009 79.0012 812.237 Q77.8728 814.45 77.8728 818.906 Q77.8728 823.348 79.0012 825.576 Q80.1442 827.789 82.4011 827.789 Q84.6725 827.789 85.801 825.576 Q86.9439 823.348 86.9439 818.906 Q86.9439 814.45 85.801 812.237 Q84.6725 810.009 82.4011 810.009 M82.4011 807.694 Q86.0324 807.694 87.9422 810.573 Q89.8663 813.438 89.8663 818.906 Q89.8663 824.361 87.9422 827.24 Q86.0324 830.104 82.4011 830.104 Q78.7698 830.104 76.8456 827.24 Q74.9359 824.361 74.9359 818.906 Q74.9359 813.438 76.8456 810.573 Q78.7698 807.694 82.4011 807.694 Z" fill="#000000" fill-rule="nonzero" fill-opacity="1" /><path clip-path="url(#clip360)" d="M79.6667 522.688 L89.8663 522.688 L89.8663 525.148 L76.1511 525.148 L76.1511 522.688 Q77.8149 520.967 80.6795 518.073 Q83.5585 515.165 84.2963 514.326 Q85.6997 512.749 86.2495 511.664 Q86.8137 510.565 86.8137 509.508 Q86.8137 507.787 85.5984 506.702 Q84.3976 505.617 82.459 505.617 Q81.0846 505.617 79.551 506.094 Q78.0319 506.571 76.2958 507.541 L76.2958 504.589 Q78.0608 503.881 79.5944 503.519 Q81.128 503.157 82.4011 503.157 Q85.7576 503.157 87.7541 504.835 Q89.7506 506.514 89.7506 509.32 Q89.7506 510.651 89.2442 511.852 Q88.7523 513.038 87.4358 514.659 Q87.0741 515.078 85.1355 517.089 Q83.1968 519.086 79.6667 522.688 Z" fill="#000000" fill-rule="nonzero" fill-opacity="1" /><path clip-path="url(#clip360)" d="M83.8768 201.557 L76.4984 213.088 L83.8768 213.088 L83.8768 201.557 M83.11 199.011 L86.7848 199.011 L86.7848 213.088 L89.8663 213.088 L89.8663 215.518 L86.7848 215.518 L86.7848 220.611 L83.8768 220.611 L83.8768 215.518 L74.1257 215.518 L74.1257 212.697 L83.11 199.011 Z" fill="#000000" fill-rule="nonzero" fill-opacity="1" /><polyline clip-path="url(#clip362)" style="stroke:#009af9; stroke-linecap:round; stroke-linejoin:round; stroke-width:4; stroke-opacity:1; fill:none" points="188.892,868.248 189.844,558.561 190.797,833.976 191.75,816.368 194.608,742.752 195.561,777.215 197.466,744.166 198.419,820.541 201.277,822.198 202.23,756.878 204.136,952.305 205.088,830.542 207.947,852.24 208.9,731.481 209.852,812.246 210.805,810.59 211.758,782.443 214.616,1013.7 215.569,656.368 216.522,737.035 217.474,840.338 218.427,885.085 222.238,770.861 223.191,805.663 224.144,949.951 225.096,1146.04 227.955,893.548 228.908,728.482 229.86,968.424 230.813,648.102 231.766,922.834 234.624,1158.65 235.577,712.598 236.53,840.604 237.482,621.938 238.435,625.301 241.293,791.792 242.246,655.66 243.199,808.009 244.152,737.982 245.104,740.064 248.915,798.21 249.868,920.875 250.821,724.333 251.774,839.569 254.632,729.727 255.585,834.532 256.538,816.413 257.49,736.724 258.443,777.97 261.301,933.724 262.254,594.121 263.207,814.017 264.16,783.24 265.112,816.457 267.971,821.312 268.923,899.203 269.876,813.192 270.829,988.142 271.782,866.649 274.64,676.857 275.593,708.967 276.546,900.229 277.498,731.862 278.451,944.29 281.309,884.44 282.262,744.337 283.215,931.254 284.168,846.901 285.12,748.94 287.979,693.789 288.931,716.631 289.884,768.82 290.837,839.052 291.79,1000.79 294.648,988.936 295.601,753.761 296.554,654.437 297.506,1146.25 298.459,957.532 301.317,696.875 302.27,711.889 303.223,663.47 304.176,798.445 307.987,762.614 308.939,753.903 309.892,850.529 310.845,790.483 311.798,941.797 314.656,770.741 315.609,750.603 316.562,766.257 317.514,824.543 318.467,839.112 321.325,790.574 322.278,947.923 323.231,731.927 324.184,835.912 325.136,792.136 327.995,677.014 328.947,805.251 329.9,890.397 330.853,954.796 331.806,761.298 334.664,765.548 335.617,918.436 336.57,690.319 337.522,779.482 338.475,756.371 342.286,726.388 343.239,833.996 344.192,737.141 345.144,797.529 348.003,799.927 348.955,825.991 349.908,788.903 350.861,719.108 351.814,746.232 354.672,802.527 355.625,818.106 356.578,870.35 357.53,929.42 358.483,770.966 361.341,805.557 362.294,778.971 363.247,708.302 364.2,799.499 365.152,860.012 368.011,824.325 368.963,911.667 369.916,751.775 370.869,827.452 371.822,790.864 374.68,826.663 375.633,714.211 376.586,804.21 377.538,742.652 381.349,872.747 382.302,917.095 383.255,753.083 384.208,879.644 385.16,798.346 388.019,742.401 388.971,846.652 389.924,761.092 390.877,993.703 391.83,664.076 394.688,850.492 395.641,751.124 396.594,784.35 397.546,818.118 398.499,891.108 401.357,812.725 402.31,882.916 403.263,815.793 404.216,1126.51 405.168,863.908 408.027,708.539 408.979,969.627 409.932,813.334 410.885,900.769 411.838,642.941 414.696,775.607 415.649,838.541 416.602,712.26 417.554,754.177 418.507,818.885 421.365,692.604 422.318,740.392 423.271,778.258 424.224,773.786 425.176,844.857 428.035,741.86 428.987,805.958 429.94,823.446 430.893,829.532 431.846,777.097 435.657,826.474 436.61,824.959 437.562,840.923 438.515,749.835 441.373,859.062 442.326,915.592 443.279,760.938 444.232,804.432 445.184,906.568 448.043,830.359 448.995,703.769 449.948,800.668 450.901,740.197 451.854,897.573 454.712,940.743 455.665,906.307 456.618,698.235 457.57,1068.51 458.523,692.982 461.381,851.226 462.334,859.795 463.287,1025.89 464.24,814.968 465.192,652.946 468.051,839.043 469.003,1053.04 469.956,555.272 470.909,1129.45 471.862,990.555 474.72,1071.13 475.673,788.847 476.626,938.573 477.578,822.155 478.531,631.182 481.389,675.81 482.342,524.147 483.295,924.397 484.248,642.913 485.2,707.6 488.059,839.834 489.011,645.179 489.964,835.782 490.917,718.544 491.87,651.092 494.728,812.09 495.681,867.265 496.633,723.03 497.586,758.063 498.539,805.402 501.397,774.027 502.35,803.961 503.303,833.061 504.256,804.708 505.208,812.919 508.067,809.196 509.019,731.965 509.972,845.576 510.925,789.23 511.878,737.631 514.736,775.481 515.689,826.232 516.641,783.647 518.547,851.917 521.405,922.853 522.358,723.737 523.311,757.979 524.264,837.937 525.216,793.974 528.075,920.245 529.027,830.68 529.98,1063.48 530.933,744.122 531.886,1067.01 534.744,924.619 535.697,936.893 536.649,516.508 537.602,455.609 538.555,836.936 541.413,751.944 542.366,796.88 543.319,815.22 545.224,773.521 548.083,796.253 549.035,900.809 549.988,972.208 551.894,828.519 554.752,1087.37 555.705,969.016 556.657,628.816 557.61,551.092 558.563,948.836 561.421,935.669 562.374,860.273 563.327,906.547 564.28,963.57 565.232,625.771 569.043,781.911 569.996,739.956 570.949,595.602 571.902,903.347 574.76,781.041 575.713,1021.81 576.665,1020.75 577.618,673.455 578.571,1012.34 581.429,635.234 582.382,598.712 583.335,873.257 584.288,662.254 585.24,868.446 588.099,887.203 589.051,655.285 590.004,808.58 590.957,675.345 591.91,753.424 595.721,792.779 596.673,819.609 597.626,829.032 598.579,727.801 601.437,823.21 602.39,773.533 603.343,835.426 604.296,834.003 605.248,869.388 608.107,724.866 609.059,881.86 610.012,883.932 610.965,802.958 611.918,1035.31 614.776,752.977 615.729,1069.38 616.681,853.838 617.634,626.521 618.587,912.543 621.445,612.423 622.398,867.858 623.351,639.837 624.304,888.506 625.256,750.71 628.115,847.133 629.067,907.591 630.02,1043.68 630.973,853.707 631.926,786.282 634.784,632.032 635.737,951.8 636.689,869.861 637.642,773.81 641.453,710.806 642.406,861.436 643.359,765.348 644.312,749.494 645.264,738.931 648.123,888.639 649.075,789.781 650.028,749.263 650.981,824.674 651.934,995.803 654.792,678.927 655.745,835.583 656.697,744.971 657.65,779.899 658.603,785.034 661.461,882.327 662.414,771.998 663.367,881.673 664.32,970.787 665.272,657.583 668.131,770.537 669.083,996.427 670.036,882.432 670.989,756.795 671.942,619.724 674.8,892.813 675.753,865.59 676.705,813.084 677.658,662.378 678.611,800.24 681.469,775.231 682.422,823.173 683.375,829.61 684.328,776.026 685.28,854.591 689.091,979.887 690.044,678.63 690.997,832.494 691.95,918.818 694.808,784.301 695.761,834.005 696.713,778.596 697.666,942.606 698.619,849.7 701.477,914.995 702.43,820.345 703.383,638.073 704.336,771.316 705.288,935.184 708.147,884.286 709.099,733.918 710.052,792.836 711.005,665.669 711.958,983.672 714.816,714.336 715.769,810.264 716.721,929.883 717.674,868.155 718.627,817.433 721.485,1141.58 722.438,784.087 723.391,699.55 724.344,835.036 728.155,862.284 729.107,724.887 730.06,1078.04 731.013,789.127 731.966,628.334 734.824,650.276 735.777,752.972 736.729,821.776 737.682,702.225 738.635,805.261 741.493,806.705 742.446,881.318 743.399,848.396 744.351,903.416 745.304,979.115 748.163,907.735 749.115,633.693 750.068,713.754 751.021,815.272 751.974,842.018 754.832,870.338 755.785,848.676 756.737,764.432 757.69,938.209 758.643,858.38 761.501,624.594 762.454,961.267 763.407,800.649 764.359,837.12 765.312,762.79 768.171,733.32 769.123,863.782 770.076,939.02 771.029,1143.21 771.982,1303.67 774.84,1453.23 775.793,1000.79 776.745,236.449 777.698,449.998 778.651,818.885 781.509,947.79 782.462,1288.38 783.415,516.745 784.367,811.096 785.32,1052.71 789.131,432.426 790.084,1030.81 791.037,734.694 791.99,750.627 794.848,877.039 795.801,626.66 796.753,689.027 797.706,851.626 798.659,1153.35 801.517,738.064 802.47,1020.17 803.423,843.251 804.375,869.312 805.328,828.358 808.187,1209.24 809.139,809.165 810.092,528.55 811.045,780.8 811.998,596.258 814.856,547.211 815.809,870.369 816.761,693.932 817.714,685.108 818.667,807.537 821.525,804.524 822.478,919.697 823.431,891.305 824.383,586.838 825.336,758.048 828.195,804.649 829.147,838.368 830.1,913.658 831.053,563.745 832.006,649.913 834.864,858.561 835.817,847.604 836.769,644.46 837.722,825.444 838.675,893.426 841.533,635.383 842.486,776.961 843.439,861.532 844.391,836.992 845.344,825.408 848.203,961.655 849.155,785.987 850.108,878.152 851.061,1027.04 852.014,993.796 854.872,590.556 855.825,835.187 856.777,573.249 857.73,832.022 858.683,759.856 861.541,839.992 862.494,795.595 863.447,822.521 865.352,804.343 868.21,881.511 869.163,668.579 870.116,981.6 871.069,1032.16 872.022,524.035 874.88,915.804 875.833,916.425 876.785,937.06 877.738,784.815 878.691,1115.46 881.549,733.129 882.502,662.91 883.455,605.073 884.407,1046.81 885.36,1189.75 888.218,689.978 889.171,680.581 890.124,631.484 891.077,852.18 894.888,846.316 895.841,654.3 896.793,929.395 897.746,969.731 901.557,1037.76 902.51,785.587 903.463,1019.77 904.415,1189.5 905.368,985.395 908.226,804.609 909.179,697.29 910.132,1199.52 911.085,574.917 912.038,1148.56 915.849,797.006 916.801,1002.99 917.754,746.117 918.707,511.245 921.565,1046.8 922.518,615.771 923.471,984.719 924.423,736.547 925.376,456.134 928.234,820.457 929.187,1100.57 930.14,734.229 931.093,790.24 932.046,1107.78 934.904,1029.35 935.857,818.885 936.809,825.457 937.762,1003.25 938.715,523.976 942.526,565.644 943.479,571.366 944.431,884.55 945.384,821.263 948.242,600.798 949.195,1010.03 950.148,750.96 951.101,637.923 952.054,850.066 954.912,946.615 955.865,454.991 956.817,756.011 957.77,760.843 958.723,771.698 961.581,802.176 962.534,989.104 963.487,738.499 964.439,809.725 965.392,576.631 968.25,836.921 969.203,843.719 970.156,727.274 971.109,725.589 972.062,833.773 974.92,801.02 975.873,825.581 976.825,919.693 977.778,826.378 981.589,809.892 982.542,677.953 983.495,750.752 984.447,856.616 985.4,720.682 988.258,864.584 989.211,973.209 990.164,653.491 991.117,1003.68 992.07,774.895 994.928,859.142 995.881,673.272 996.833,665.865 997.786,818.885 998.739,834.264 1001.6,711.553 1002.55,776.018 1003.5,805.106 1004.46,898.831 1005.41,816.699 1008.27,846.596 1009.22,791.901 1010.17,791.222 1011.12,956.235 1012.08,904.255 1014.94,697.596 1015.89,953.464 1016.84,904.069 1017.79,819.627 1018.75,765.493 1021.61,805.566 1022.56,631.446 1023.51,956.114 1024.46,818.885 1025.42,952.155 1028.27,669.405 1029.23,959.443 1030.18,812.94 1031.13,873.96 1032.09,725.967 1034.94,842.617 1035.9,619.057 1036.85,718.854 1037.8,813.791 1038.75,753.549 1042.57,840.632 1043.52,791.343 1044.47,773.333 1045.42,862.988 1048.28,743.048 1049.24,795.847 1050.19,770.763 1051.14,842.567 1052.09,959.584 1054.95,936.77 1055.9,845.206 1056.86,843.052 1057.81,769.857 1058.76,954.646 1061.62,724.091 1062.57,780.109 1063.53,843.748 1064.48,616.768 1065.43,1377.92 1068.29,1094.08 1069.24,548.934 1070.2,558.057 1071.15,611.793 1072.1,795.644 1075.91,920.094 1076.87,722.756 1077.82,835.591 1078.77,593.095 1081.63,764.562 1082.58,710.108 1083.53,819.593 1084.49,738.334 1085.44,837.218 1088.3,777.313 1089.25,836.134 1090.2,752.46 1091.16,877.914 1092.11,750.74 1094.97,858.892 1095.92,813.966 1096.87,832.239 1097.83,802.017 1098.78,793.619 1101.64,835.724 1102.59,913.954 1103.54,773.037 1104.5,804.102 1105.45,695.55 1108.31,828.659 1109.26,809.808 1110.21,855.222 1111.16,748.385 1112.12,832.819 1114.98,771.907 1115.93,898.658 1116.88,791.666 1117.83,784.06 1118.79,839.77 1121.65,823.762 1122.6,788.253 1123.55,892.785 1124.5,836.366 1125.46,845.495 1128.31,741.284 1129.27,846.105 1130.22,860.156 1131.17,816.783 1132.13,751.797 1135.94,770.152 1136.89,819.58 1137.84,855.769 1138.79,1188.45 1141.65,602.686 1142.61,1039.37 1143.56,825.313 1144.51,666.057 1145.46,957.431 1148.32,815.316 1149.28,816.744 1150.23,650.725 1151.18,723.22 1152.13,901.148 1154.99,944.186 1155.94,723.929 1156.9,740.673 1157.85,959.388 1158.8,699.48 1161.66,866.111 1162.61,887.517 1163.57,752.37 1164.52,806.886 1165.47,873.305 1168.33,744.723 1169.28,1007.47 1170.24,799.636 1171.19,867.41 1172.14,815.311 1175,868.27 1175.95,726.685 1176.91,779.033 1177.86,844.491 1178.81,816.037 1181.67,753.542 1182.62,866.443 1183.57,850.198 1184.53,859.546 1185.48,866.102 1188.34,818.885 1189.29,927.466 1190.24,912.989 1191.2,881.46 1192.15,842.964 1195.01,486.613 1195.96,750.446 1196.91,653.343 1197.87,786.553 1198.82,847.699 1201.68,813.961 1202.63,698.408 1203.58,841.227 1204.54,747.783 1205.49,848.818 1208.35,708.492 1209.3,789.857 1210.25,806.461 1212.16,762.417 1215.02,887.085 1215.97,794.739 1216.92,857.537 1217.87,874.966 1218.83,809.177 1221.69,731.791 1222.64,765.905 1223.59,622.345 1224.54,780.285 1225.5,727.181 1228.35,837.72 1229.31,718.922 1230.26,939.054 1231.21,761.703 1232.17,933.464 1235.02,789.821 1235.98,760.251 1236.93,857.274 1237.88,843.181 1238.83,802.008 1242.65,781.149 1243.6,941.868 1244.55,823.635 1245.5,873.957 1249.32,707.586 1250.27,728.545 1251.22,830.316 1252.17,760.473 1255.03,868.553 1255.98,822.919 1256.94,775.907 1257.89,852.451 1258.84,787.331 1262.65,868.595 1263.61,789.307 1264.56,872.03 1265.51,768.426 1268.37,853.852 1269.32,725.594 1270.28,690.955 1271.23,831.828 1272.18,839.152 1275.04,910.257 1275.99,822.899 1276.95,813.532 1277.9,810.191 1278.85,711.632 1281.71,846.791 1282.66,818.22 1283.61,799.611 1284.57,732.125 1285.52,758.906 1288.38,736.88 1289.33,754.901 1290.28,743.494 1291.24,827.964 1292.19,797.493 1296,728.464 1296.95,829.191 1297.91,809.222 1298.86,797.648 1301.72,796.393 1302.67,858.105 1303.62,612.984 1304.58,908.704 1305.53,809.304 1308.39,864.926 1309.34,864.423 1310.29,848.461 1311.24,803.446 1312.2,766.895 1315.06,811.838 1316.01,871.493 1316.96,692.802 1317.91,843.124 1318.87,911.733 1321.72,840.095 1322.68,1010.47 1323.63,787.653 1324.58,835.143 1325.54,826.044 1328.39,839.731 1329.35,709.112 1330.3,798.188 1331.25,774.998 1332.21,855.018 1335.06,840.864 1336.02,809.83 1336.97,867.453 1337.92,778.077 1338.87,833.123 1341.73,809.175 1342.69,837.013 1343.64,879.904 1344.59,920.693 1348.4,686.536 1349.36,865.043 1350.31,844.299 1351.26,699.998 1352.21,864.9 1355.07,655.546 1356.02,728.609 1356.98,824.631 1357.93,808.032 1358.88,851.465 1361.74,783.752 1362.69,809.955 1363.65,836.111 1364.6,804.209 1365.55,757.146 1368.41,821.426 1369.36,832.868 1370.32,793.471 1371.27,847.478 1372.22,843.072 1375.08,741.365 1376.03,828.394 1376.99,1090.83 1377.94,760.89 1378.89,719.52 1381.75,740.492 1382.7,787.133 1383.65,783.401 1384.61,748.165 1385.56,816.995 1389.37,832.748 1390.32,825.19 1391.28,698.891 1392.23,768.281 1395.09,830.115 1396.04,863.264 1396.99,793.866 1397.95,811.387 1398.9,838.886 1401.76,825.766 1402.71,745.225 1403.66,835.084 1404.62,848.212 1405.57,891.51 1408.43,693.262 1409.38,919.425 1410.33,823.898 1411.28,826.407 1412.24,798.832 1415.1,811.372 1416.05,938.908 1417,686.973 1417.95,948.903 1418.91,794.933 1421.76,784.285 1423.67,790.634 1424.62,956.867 1425.58,722.983 1428.43,802.541 1429.39,831.455 1430.34,704.872 1431.29,792.072 1432.25,748.647 1435.1,820.745 1436.06,807.725 1437.01,738.528 1437.96,813.953 1438.91,829.982 1441.77,823.819 1442.73,783.144 1443.68,815.807 1444.63,832.429 1445.58,838.607 1448.44,828.755 1449.4,783.749 1450.35,811.19 1451.3,847.527 1452.25,792.396 1455.11,791.213 1456.06,853.328 1457.02,822.58 1457.97,1032.24 1458.92,798.911 1461.78,669.293 1462.73,818.267 1463.69,794.815 1464.64,1054.42 1465.59,847.093 1468.45,803.207 1469.4,664.847 1470.36,872.963 1471.31,850.051 1472.26,787.095 1475.12,815.772 1476.07,802.707 1477.03,745.678 1477.98,732.484 1478.93,791.217 1482.74,929.24 1483.69,768.231 1484.65,820.118 1485.6,839.251 1488.46,657.935 1489.41,764.596 1490.36,812.797 1491.32,823.146 1492.27,870.723 1495.13,791.419 1496.08,803.038 1497.03,810.967 1497.99,860.954 1498.94,817.053 1501.8,849.438 1502.75,810.935 1503.7,759.697 1504.66,800.017 1505.61,766.665 1508.47,753.559 1509.42,784.52 1510.37,800.228 1511.32,729.528 1512.28,833.841 1515.14,845.243 1516.09,780.56 1517.04,794.981 1517.99,842.789 1518.95,799.758 1521.8,796.203 1522.76,809.345 1523.71,805.181 1524.66,811.145 1525.62,743.479 1528.47,875.255 1529.43,795.124 1530.38,892.663 1531.33,801.598 1532.29,694.288 1535.14,871.565 1536.1,800.514 1537.05,795.214 1538,812.382 1538.95,769.906 1541.81,796.513 1542.77,826.534 1543.72,794.184 1544.67,873.043 1545.62,825.373 1548.48,804.142 1549.44,853.7 1550.39,896.471 1551.34,690.577 1552.29,861.337 1555.15,795.58 1556.1,720.456 1557.06,830.018 1558.96,785.51 1561.82,823.564 1562.77,668.102 1563.73,825.838 1564.68,694.786 1565.63,844.199 1568.49,836.745 1569.44,873.171 1570.4,817.728 1571.35,770.368 1572.3,736.07 1575.16,770.212 1576.11,793.179 1577.07,822.309 1578.02,879.517 1578.97,769.673 1581.83,725.195 1582.78,873.206 1583.73,828.575 1584.69,789.264 1585.64,823.438 1589.45,837.111 1590.4,809.199 1591.36,789.296 1592.31,874.696 1596.12,709.731 1597.07,724.576 1598.03,753.719 1598.98,719.985 1601.84,789.395 1602.79,785.569 1603.74,842.753 1604.7,708.735 1605.65,717.742 1609.46,871.571 1610.41,674.434 1611.36,842.865 1612.32,753.03 1615.18,695.025 1616.13,787.136 1617.08,823.186 1618.03,812.971 1618.99,644.129 1621.84,919.111 1622.8,982.361 1623.75,804.294 1624.7,836.179 1625.66,1151.26 1628.51,1458.31 1629.47,532.256 1630.42,906.811 1631.37,1393.38 1632.33,586.714 1635.18,612.571 1636.14,777.039 1637.09,607.978 1638.04,633.709 1638.99,813.866 1642.81,912.282 1643.76,899.882 1644.71,801.411 1645.66,573.569 1648.52,641.977 1649.47,1012.99 1650.43,989.093 1651.38,1022.27 1652.33,739.469 1655.19,646.173 1656.14,779.777 1657.1,824.465 1658.05,747.606 1659,557.799 1661.86,836.37 1662.81,918.168 1663.77,897.231 1664.72,833.827 1665.67,863.245 1668.53,1026.31 1669.48,793.574 1670.44,847.011 1671.39,1204.34 1672.34,1149.88 1675.2,402.084 1676.15,1088.85 1677.11,858.097 1678.06,606.48 1681.87,1166.67 1682.82,629.101 1683.77,641.246 1684.73,715.351 1685.68,1157.39 1688.54,756.298 1689.49,572.23 1690.44,897.196 1691.4,695.841 1692.35,861.894 1695.21,693.635 1696.16,659.671 1697.11,807.053 1698.07,903.034 1699.02,946.844 1701.88,821.169 1702.83,1023.02 1703.78,787.656 1704.74,661.408 1705.69,803.455 1708.55,941.613 1709.5,786.673 1710.45,922.665 1711.4,853.056 1712.36,623.581 1715.22,767.452 1716.17,819.455 1717.12,671.83 1718.07,676.595 1719.03,784.776 1721.88,802.696 1722.84,923.579 1723.79,753.296 1724.74,830.076 1725.7,856.437 1728.55,705.948 1729.51,863.512 1730.46,773.143 1731.41,848.991 1732.37,855.763 1736.18,992.174 1737.13,623.234 1738.08,921.457 1739.03,657.214 1741.89,748.932 1742.85,802.277 1743.8,692.154 1744.75,828.216 1745.7,771.192 1748.56,798.647 1749.51,796.49 1750.47,875.206 1751.42,776.76 1752.37,902.151 1755.23,853.53 1756.18,877.356 1757.14,792.379 1758.09,916.298 1759.04,791.701 1761.9,1025.92 1762.85,788.014 1763.81,947.833 1764.76,724.178 1765.71,804.842 1768.57,777.953 1769.52,880.604 1771.43,692.348 1772.38,692.285 1775.24,680.173 1776.19,768.557 1777.15,923.556 1778.1,687.476 1779.05,804.172 1781.91,830.872 1782.86,756.329 1783.81,789.057 1784.77,874.247 1785.72,835.206 1788.58,791.148 1789.53,746.79 1790.48,680.534 1791.44,864.504 1792.39,917.566 1795.25,904.059 1796.2,746.7 1797.15,835.137 1798.11,742.11 1799.06,748.935 1801.92,763.156 1802.87,772.955 1803.82,825.819 1804.78,838.103 1805.73,922.87 1808.59,876.003 1809.54,722.018 1810.49,931.956 1811.44,692.944 1812.4,769.653 1815.26,781.532 1816.21,790.133 1817.16,822.077 1818.11,841.247 1819.07,726.452 1821.92,702.288 1822.88,811.003 1823.83,734.545 1824.78,883.8 1825.74,819.409 1829.55,837.784 1830.5,862.02 1831.45,864.256 1832.41,852.737 1835.26,789.788 1836.22,765.07 1837.17,816.778 1838.12,731.721 1839.07,814.696 1841.93,900.761 1842.89,737.008 1843.84,800.575 1844.79,699.629 1845.74,898.458 1848.6,867.98 1849.55,838.253 1850.51,863.473 1851.46,776.916 1852.41,820.98 1855.27,763.446 1856.22,824.106 1857.18,807.4 1858.13,939.91 1859.08,902.75 1861.94,823.646 1862.89,838.473 1863.85,1316.97 1864.8,1146.99 1865.75,610.028 1868.61,904.636 1869.56,498.828 1870.52,812.367 1871.47,1034.35 1872.42,834.314 1875.28,881.311 1876.23,904.376 1877.18,1288.1 1878.14,539.005 1879.09,1094.75 1881.95,905.802 1882.9,587.441 1883.85,656.58 1884.81,661.631 1885.76,913.826 1888.62,727.284 1889.57,726.725 1890.52,500.649 1891.48,844.382 1892.43,961.261 1895.29,1114.4 1896.24,842.932 1897.19,926.725 1898.15,656.293 1899.1,784.904 1901.96,1073.06 1902.91,1099.83 1903.86,768.826 1905.77,917.433 1908.63,583.659 1909.58,768.867 1910.53,472.735 1911.48,849.423 1912.44,719.719 1915.3,627.922 1916.25,1303.11 1918.15,850.442 1919.11,1177.33 1921.96,794.071 1922.92,818.308 1923.87,737.23 1924.82,826.916 1925.78,1101.5 1928.63,1125.33 1929.59,827.237 1930.54,1057.05 1931.49,1060.84 1932.45,1227.09 1935.3,1222.74 1937.21,88.3431 1938.16,678.362 1939.11,842.215 1941.97,678.217 1943.88,810.364 1944.83,1196.5 1945.78,307.391 1948.64,709.511 1949.59,675.847 1950.55,748.457 1951.5,756.424 1952.45,820.649 1955.31,904.401 1956.26,647.16 1957.22,785.588 1958.17,700.889 1959.12,620.996 1962.93,1019.67 1963.89,796.894 1964.84,800.968 1965.79,692.339 1968.65,936.192 1969.6,839.102 1970.56,580.306 1971.51,688.566 1972.46,807.605 1975.32,712.143 1976.27,751.853 1977.22,843.429 1978.18,962.477 1979.13,802.55 1981.99,809.317 1982.94,624.902 1983.89,771.188 1984.85,852.145 1985.8,652.753 1989.61,793.655 1990.56,786.585 1991.52,872.572 1992.47,725.874 1995.33,796.537 1996.28,831.417 1997.23,824.882 1998.19,855.465 1999.14,713.749 2002,877.627 2002.95,837.97 2003.9,915.223 2004.86,941.278 2005.81,849.36 2008.67,600.265 2009.62,767.577 2010.57,715.703 2011.52,827.005 2012.48,810.223 2015.34,762.703 2016.29,814.032 2017.24,870.18 2018.19,649.995 2019.15,1111.59 2022,830.34 2022.96,709.595 2023.91,891.113 2024.86,761.291 2025.82,719.965 2028.67,642.645 2029.63,814.624 2030.58,790.16 2031.53,782.259 2032.49,749.063 2035.34,803.588 2036.3,898.967 2037.25,766.77 2038.2,822.054 2039.15,715.691 2042.01,829.383 2042.97,808.911 2043.92,856.187 2044.87,789.981 2048.68,803.142 2049.63,686.765 2050.59,851.156 2051.54,826.702 2052.49,748.149 2055.35,800.734 2056.3,809.558 2057.26,929.614 2058.21,849.176 2059.16,674.755 2062.02,879.076 2062.97,1072.63 2063.93,843.752 2064.88,862.367 2065.83,751.064 2068.69,1196.78 2069.64,690.979 2070.6,725.659 2071.55,682.225 2072.5,911.275 2075.36,922.024 2076.31,684.355 2077.26,864.662 2078.22,999.067 2079.17,790.321 2082.98,959.524 2083.93,920.299 2084.89,780.093 2085.84,1021.03 2088.7,862.631 2089.65,492.994 2090.6,690.241 2091.56,719.634 2092.51,665.652 2095.37,749.692 2096.32,821.52 2097.27,847.374 2098.23,750.39 2099.18,843.612 2102.04,805.2 2102.99,669.164 2103.94,779.345 2104.89,675.122 2105.85,909.742 2108.71,841.684 2109.66,967.395 2110.61,835.65 2111.56,762.897 2112.52,738.664 2115.38,688.004 2116.33,774.65 2117.28,701.721 2119.19,839.285 2122.04,895.63 2123,798.381 2123.95,749.889 2124.9,784.249 2125.86,748.33 2128.71,814.834 2129.67,871.121 2130.62,919.295 2131.57,763.246 2132.53,907.287 2135.38,777.941 2136.34,714.975 2137.29,746.971 2138.24,890.798 2139.19,716.183 2142.05,844.621 2143.01,852.762 2143.96,993.507 2144.91,947.95 2145.86,928.235 2148.72,1279.32 2149.67,619.699 2150.63,806.191 2151.58,529.818 2152.53,920.375 2155.39,1002.23 2156.34,591.735 2157.3,1268.58 2158.25,778.715 2159.2,596.397 2162.06,637.579 2163.01,937.59 2163.97,694.451 2164.92,824.613 2165.87,1214.66 2168.73,651.406 2169.68,876.629 2170.64,715.207 2171.59,624.029 2172.54,823.57 2176.35,907.65 2177.3,652.743 2178.26,619.73 2179.21,806.108 2182.07,815.82 2183.02,815.821 2183.97,713.043 2184.93,768.765 2185.88,830.008 2188.74,863.967 2189.69,779.367 2190.64,810.791 2191.6,820.908 2192.55,967.802 2195.41,812.757 2196.36,943.969 2197.31,727.022 2198.27,851.153 2199.22,901.66 2202.08,743.289 2203.03,1005.21 2203.98,1090.29 2204.93,696.208 2205.89,610.558 2208.75,885.239 2209.7,1056.6 2210.65,678.113 2211.6,714.154 2212.56,662.869 2215.42,831.739 2216.37,671.453 2217.32,843.358 2218.27,776.591 2219.23,883.135 2222.08,713.98 2223.04,870.228 2223.99,776.679 2224.94,791.488 2225.9,756.16 2228.75,732.807 2229.71,825.411 2230.66,772.755 2231.61,863.006 2232.57,672.971 2235.42,760.314 2236.38,836.73 2237.33,811.942 2238.28,765.436 2239.23,782.863 2242.09,846.51 2243.05,791.752 2244,811.986 2244.95,796.731 2245.9,706.646 2248.76,810.097 2249.71,824.254 2250.67,872.193 2251.62,843.891 2252.57,785.062 2255.43,703.28 2256.38,786.362 2257.34,750.184 2259.24,875.468 2262.1,948.803 2263.05,922.836 2264.01,721.287 2264.96,791.044 2265.91,683.828 2268.77,864.903 2269.72,834.417 2270.68,777.662 2271.63,687.238 2272.58,811.684 2275.44,712.237 2276.39,816.978 2277.34,817.932 2278.3,755.17 2279.25,816.987 2282.11,805.606 2283.06,817.937 2284.97,740.405 2285.92,821.243 2288.78,902.117 2289.73,781.468 "/>
<polyline clip-path="url(#clip362)" style="stroke:#008000; stroke-linecap:round; stroke-linejoin:round; stroke-width:20; stroke-opacity:0.2; fill:none" points="908.226,2951.57 908.226,-1404.92 "/>
<polyline clip-path="url(#clip362)" style="stroke:#0000ff; stroke-linecap:round; stroke-linejoin:round; stroke-width:20; stroke-opacity:0.2; fill:none" points="1568.49,2951.57 1568.49,-1404.92 "/>
<path clip-path="url(#clip360)" d="M200.096 212.29 L811.654 212.29 L811.654 95.6496 L200.096 95.6496  Z" fill="#ffffff" fill-rule="evenodd" fill-opacity="1"/>
<polyline clip-path="url(#clip360)" style="stroke:#000000; stroke-linecap:round; stroke-linejoin:round; stroke-width:4; stroke-opacity:1; fill:none" points="200.096,212.29 811.654,212.29 811.654,95.6496 200.096,95.6496 200.096,212.29 "/>
<polyline clip-path="url(#clip360)" style="stroke:#008000; stroke-linecap:round; stroke-linejoin:round; stroke-width:15; stroke-opacity:0.2; fill:none" points="224.839,134.53 373.299,134.53 "/>
<path clip-path="url(#clip360)" d="M411.861 128.618 L411.861 131.639 Q410.507 130.945 409.049 130.597 Q407.59 130.25 406.028 130.25 Q403.649 130.25 402.451 130.979 Q401.271 131.708 401.271 133.167 Q401.271 134.278 402.122 134.92 Q402.972 135.545 405.542 136.118 L406.635 136.361 Q410.038 137.09 411.462 138.427 Q412.903 139.747 412.903 142.125 Q412.903 144.833 410.75 146.413 Q408.615 147.993 404.865 147.993 Q403.302 147.993 401.601 147.681 Q399.917 147.385 398.042 146.778 L398.042 143.479 Q399.813 144.399 401.531 144.868 Q403.25 145.319 404.934 145.319 Q407.191 145.319 408.406 144.556 Q409.622 143.774 409.622 142.368 Q409.622 141.066 408.736 140.372 Q407.868 139.677 404.899 139.035 L403.788 138.774 Q400.819 138.149 399.5 136.865 Q398.181 135.563 398.181 133.306 Q398.181 130.563 400.125 129.07 Q402.069 127.576 405.646 127.576 Q407.417 127.576 408.979 127.837 Q410.542 128.097 411.861 128.618 Z" fill="#000000" fill-rule="nonzero" fill-opacity="1" /><path clip-path="url(#clip360)" d="M421.149 122.524 L421.149 128.045 L427.729 128.045 L427.729 130.528 L421.149 130.528 L421.149 141.083 Q421.149 143.462 421.792 144.139 Q422.451 144.816 424.448 144.816 L427.729 144.816 L427.729 147.49 L424.448 147.49 Q420.75 147.49 419.344 146.118 Q417.937 144.729 417.937 141.083 L417.937 130.528 L415.594 130.528 L415.594 128.045 L417.937 128.045 L417.937 122.524 L421.149 122.524 Z" fill="#000000" fill-rule="nonzero" fill-opacity="1" /><path clip-path="url(#clip360)" d="M440.767 137.715 Q436.896 137.715 435.403 138.601 Q433.91 139.486 433.91 141.622 Q433.91 143.323 435.021 144.33 Q436.149 145.319 438.076 145.319 Q440.732 145.319 442.33 143.444 Q443.944 141.552 443.944 138.427 L443.944 137.715 L440.767 137.715 M447.139 136.396 L447.139 147.49 L443.944 147.49 L443.944 144.538 Q442.851 146.309 441.219 147.16 Q439.587 147.993 437.226 147.993 Q434.239 147.993 432.469 146.326 Q430.715 144.642 430.715 141.83 Q430.715 138.549 432.903 136.882 Q435.108 135.215 439.465 135.215 L443.944 135.215 L443.944 134.903 Q443.944 132.698 442.486 131.5 Q441.045 130.285 438.423 130.285 Q436.757 130.285 435.177 130.684 Q433.597 131.083 432.139 131.882 L432.139 128.931 Q433.892 128.254 435.542 127.924 Q437.191 127.576 438.753 127.576 Q442.972 127.576 445.055 129.764 Q447.139 131.951 447.139 136.396 Z" fill="#000000" fill-rule="nonzero" fill-opacity="1" /><path clip-path="url(#clip360)" d="M464.986 131.031 Q464.448 130.719 463.805 130.58 Q463.18 130.424 462.416 130.424 Q459.708 130.424 458.25 132.194 Q456.809 133.948 456.809 137.247 L456.809 147.49 L453.597 147.49 L453.597 128.045 L456.809 128.045 L456.809 131.066 Q457.816 129.295 459.43 128.445 Q461.045 127.576 463.354 127.576 Q463.684 127.576 464.083 127.629 Q464.482 127.663 464.968 127.75 L464.986 131.031 Z" fill="#000000" fill-rule="nonzero" fill-opacity="1" /><path clip-path="url(#clip360)" d="M471.496 122.524 L471.496 128.045 L478.076 128.045 L478.076 130.528 L471.496 130.528 L471.496 141.083 Q471.496 143.462 472.139 144.139 Q472.798 144.816 474.795 144.816 L478.076 144.816 L478.076 147.49 L474.795 147.49 Q471.097 147.49 469.691 146.118 Q468.284 144.729 468.284 141.083 L468.284 130.528 L465.941 130.528 L465.941 128.045 L468.284 128.045 L468.284 122.524 L471.496 122.524 Z" fill="#000000" fill-rule="nonzero" fill-opacity="1" /><path clip-path="url(#clip360)" d="M506.374 130.997 L506.374 120.476 L509.569 120.476 L509.569 147.49 L506.374 147.49 L506.374 144.573 Q505.368 146.309 503.822 147.16 Q502.295 147.993 500.142 147.993 Q496.618 147.993 494.395 145.181 Q492.191 142.368 492.191 137.785 Q492.191 133.201 494.395 130.389 Q496.618 127.576 500.142 127.576 Q502.295 127.576 503.822 128.427 Q505.368 129.26 506.374 130.997 M495.489 137.785 Q495.489 141.309 496.93 143.323 Q498.388 145.319 500.923 145.319 Q503.458 145.319 504.916 143.323 Q506.374 141.309 506.374 137.785 Q506.374 134.26 504.916 132.264 Q503.458 130.25 500.923 130.25 Q498.388 130.25 496.93 132.264 Q495.489 134.26 495.489 137.785 Z" fill="#000000" fill-rule="nonzero" fill-opacity="1" /><path clip-path="url(#clip360)" d="M524.985 137.715 Q521.114 137.715 519.621 138.601 Q518.128 139.486 518.128 141.622 Q518.128 143.323 519.239 144.33 Q520.367 145.319 522.295 145.319 Q524.951 145.319 526.548 143.444 Q528.163 141.552 528.163 138.427 L528.163 137.715 L524.985 137.715 M531.357 136.396 L531.357 147.49 L528.163 147.49 L528.163 144.538 Q527.069 146.309 525.437 147.16 Q523.805 147.993 521.444 147.993 Q518.458 147.993 516.687 146.326 Q514.933 144.642 514.933 141.83 Q514.933 138.549 517.121 136.882 Q519.326 135.215 523.683 135.215 L528.163 135.215 L528.163 134.903 Q528.163 132.698 526.704 131.5 Q525.263 130.285 522.642 130.285 Q520.975 130.285 519.395 130.684 Q517.815 131.083 516.357 131.882 L516.357 128.931 Q518.111 128.254 519.76 127.924 Q521.409 127.576 522.972 127.576 Q527.19 127.576 529.274 129.764 Q531.357 131.951 531.357 136.396 Z" fill="#000000" fill-rule="nonzero" fill-opacity="1" /><path clip-path="url(#clip360)" d="M541.097 122.524 L541.097 128.045 L547.676 128.045 L547.676 130.528 L541.097 130.528 L541.097 141.083 Q541.097 143.462 541.739 144.139 Q542.399 144.816 544.395 144.816 L547.676 144.816 L547.676 147.49 L544.395 147.49 Q540.697 147.49 539.291 146.118 Q537.885 144.729 537.885 141.083 L537.885 130.528 L535.541 130.528 L535.541 128.045 L537.885 128.045 L537.885 122.524 L541.097 122.524 Z" fill="#000000" fill-rule="nonzero" fill-opacity="1" /><path clip-path="url(#clip360)" d="M568.51 136.969 L568.51 138.531 L553.822 138.531 Q554.03 141.83 555.801 143.566 Q557.589 145.285 560.767 145.285 Q562.607 145.285 564.326 144.833 Q566.062 144.382 567.763 143.479 L567.763 146.5 Q566.044 147.229 564.239 147.611 Q562.433 147.993 560.576 147.993 Q555.923 147.993 553.197 145.285 Q550.489 142.576 550.489 137.958 Q550.489 133.184 553.058 130.389 Q555.645 127.576 560.02 127.576 Q563.944 127.576 566.218 130.111 Q568.51 132.629 568.51 136.969 M565.315 136.031 Q565.28 133.41 563.839 131.847 Q562.416 130.285 560.055 130.285 Q557.381 130.285 555.767 131.795 Q554.169 133.306 553.926 136.049 L565.315 136.031 Z" fill="#000000" fill-rule="nonzero" fill-opacity="1" /><path clip-path="url(#clip360)" d="M592.589 130.285 Q590.02 130.285 588.527 132.299 Q587.034 134.295 587.034 137.785 Q587.034 141.274 588.509 143.288 Q590.003 145.285 592.589 145.285 Q595.141 145.285 596.634 143.271 Q598.127 141.257 598.127 137.785 Q598.127 134.33 596.634 132.316 Q595.141 130.285 592.589 130.285 M592.589 127.576 Q596.756 127.576 599.134 130.285 Q601.513 132.993 601.513 137.785 Q601.513 142.559 599.134 145.285 Q596.756 147.993 592.589 147.993 Q588.405 147.993 586.027 145.285 Q583.666 142.559 583.666 137.785 Q583.666 132.993 586.027 130.285 Q588.405 127.576 592.589 127.576 Z" fill="#000000" fill-rule="nonzero" fill-opacity="1" /><path clip-path="url(#clip360)" d="M616.652 120.476 L616.652 123.132 L613.596 123.132 Q611.877 123.132 611.2 123.826 Q610.541 124.521 610.541 126.326 L610.541 128.045 L615.801 128.045 L615.801 130.528 L610.541 130.528 L610.541 147.49 L607.329 147.49 L607.329 130.528 L604.273 130.528 L604.273 128.045 L607.329 128.045 L607.329 126.691 Q607.329 123.445 608.839 121.969 Q610.35 120.476 613.631 120.476 L616.652 120.476 Z" fill="#000000" fill-rule="nonzero" fill-opacity="1" /><path clip-path="url(#clip360)" d="M643.023 128.618 L643.023 131.639 Q641.669 130.945 640.211 130.597 Q638.752 130.25 637.19 130.25 Q634.811 130.25 633.613 130.979 Q632.433 131.708 632.433 133.167 Q632.433 134.278 633.284 134.92 Q634.134 135.545 636.704 136.118 L637.797 136.361 Q641.2 137.09 642.624 138.427 Q644.065 139.747 644.065 142.125 Q644.065 144.833 641.912 146.413 Q639.777 147.993 636.027 147.993 Q634.464 147.993 632.763 147.681 Q631.079 147.385 629.204 146.778 L629.204 143.479 Q630.975 144.399 632.693 144.868 Q634.412 145.319 636.096 145.319 Q638.353 145.319 639.568 144.556 Q640.783 143.774 640.783 142.368 Q640.783 141.066 639.898 140.372 Q639.03 139.677 636.061 139.035 L634.95 138.774 Q631.981 138.149 630.662 136.865 Q629.343 135.563 629.343 133.306 Q629.343 130.563 631.287 129.07 Q633.231 127.576 636.808 127.576 Q638.579 127.576 640.141 127.837 Q641.704 128.097 643.023 128.618 Z" fill="#000000" fill-rule="nonzero" fill-opacity="1" /><path clip-path="url(#clip360)" d="M657.988 137.715 Q654.117 137.715 652.624 138.601 Q651.131 139.486 651.131 141.622 Q651.131 143.323 652.242 144.33 Q653.37 145.319 655.297 145.319 Q657.954 145.319 659.551 143.444 Q661.165 141.552 661.165 138.427 L661.165 137.715 L657.988 137.715 M664.36 136.396 L664.36 147.49 L661.165 147.49 L661.165 144.538 Q660.072 146.309 658.44 147.16 Q656.808 147.993 654.447 147.993 Q651.461 147.993 649.69 146.326 Q647.936 144.642 647.936 141.83 Q647.936 138.549 650.124 136.882 Q652.329 135.215 656.686 135.215 L661.165 135.215 L661.165 134.903 Q661.165 132.698 659.707 131.5 Q658.266 130.285 655.645 130.285 Q653.978 130.285 652.398 130.684 Q650.818 131.083 649.36 131.882 L649.36 128.931 Q651.113 128.254 652.763 127.924 Q654.412 127.576 655.974 127.576 Q660.193 127.576 662.276 129.764 Q664.36 131.951 664.36 136.396 Z" fill="#000000" fill-rule="nonzero" fill-opacity="1" /><path clip-path="url(#clip360)" d="M686.078 131.778 Q687.276 129.625 688.943 128.601 Q690.61 127.576 692.867 127.576 Q695.905 127.576 697.554 129.712 Q699.203 131.83 699.203 135.754 L699.203 147.49 L695.992 147.49 L695.992 135.858 Q695.992 133.063 695.002 131.708 Q694.012 130.354 691.981 130.354 Q689.499 130.354 688.058 132.004 Q686.617 133.653 686.617 136.5 L686.617 147.49 L683.405 147.49 L683.405 135.858 Q683.405 133.045 682.415 131.708 Q681.426 130.354 679.36 130.354 Q676.912 130.354 675.471 132.021 Q674.03 133.67 674.03 136.5 L674.03 147.49 L670.818 147.49 L670.818 128.045 L674.03 128.045 L674.03 131.066 Q675.124 129.278 676.651 128.427 Q678.179 127.576 680.28 127.576 Q682.398 127.576 683.874 128.653 Q685.367 129.729 686.078 131.778 Z" fill="#000000" fill-rule="nonzero" fill-opacity="1" /><path clip-path="url(#clip360)" d="M708.665 144.573 L708.665 154.885 L705.453 154.885 L705.453 128.045 L708.665 128.045 L708.665 130.997 Q709.672 129.26 711.2 128.427 Q712.745 127.576 714.88 127.576 Q718.422 127.576 720.627 130.389 Q722.849 133.201 722.849 137.785 Q722.849 142.368 720.627 145.181 Q718.422 147.993 714.88 147.993 Q712.745 147.993 711.2 147.16 Q709.672 146.309 708.665 144.573 M719.533 137.785 Q719.533 134.26 718.075 132.264 Q716.634 130.25 714.099 130.25 Q711.564 130.25 710.106 132.264 Q708.665 134.26 708.665 137.785 Q708.665 141.309 710.106 143.323 Q711.564 145.319 714.099 145.319 Q716.634 145.319 718.075 143.323 Q719.533 141.309 719.533 137.785 Z" fill="#000000" fill-rule="nonzero" fill-opacity="1" /><path clip-path="url(#clip360)" d="M728.144 120.476 L731.339 120.476 L731.339 147.49 L728.144 147.49 L728.144 120.476 Z" fill="#000000" fill-rule="nonzero" fill-opacity="1" /><path clip-path="url(#clip360)" d="M754.654 136.969 L754.654 138.531 L739.967 138.531 Q740.175 141.83 741.946 143.566 Q743.734 145.285 746.911 145.285 Q748.752 145.285 750.47 144.833 Q752.206 144.382 753.908 143.479 L753.908 146.5 Q752.189 147.229 750.384 147.611 Q748.578 147.993 746.72 147.993 Q742.068 147.993 739.342 145.285 Q736.634 142.576 736.634 137.958 Q736.634 133.184 739.203 130.389 Q741.79 127.576 746.165 127.576 Q750.088 127.576 752.363 130.111 Q754.654 132.629 754.654 136.969 M751.46 136.031 Q751.425 133.41 749.984 131.847 Q748.561 130.285 746.2 130.285 Q743.526 130.285 741.911 131.795 Q740.314 133.306 740.071 136.049 L751.46 136.031 Z" fill="#000000" fill-rule="nonzero" fill-opacity="1" /><path clip-path="url(#clip360)" d="M774.672 144.538 L786.911 144.538 L786.911 147.49 L770.453 147.49 L770.453 144.538 Q772.449 142.472 775.887 139 Q779.342 135.51 780.227 134.504 Q781.911 132.611 782.571 131.309 Q783.248 129.99 783.248 128.722 Q783.248 126.656 781.79 125.354 Q780.349 124.052 778.022 124.052 Q776.373 124.052 774.533 124.625 Q772.71 125.198 770.627 126.361 L770.627 122.82 Q772.745 121.969 774.585 121.535 Q776.425 121.101 777.953 121.101 Q781.981 121.101 784.376 123.115 Q786.772 125.129 786.772 128.497 Q786.772 130.094 786.165 131.535 Q785.574 132.958 783.995 134.903 Q783.56 135.406 781.234 137.819 Q778.908 140.215 774.672 144.538 Z" fill="#000000" fill-rule="nonzero" fill-opacity="1" /><polyline clip-path="url(#clip360)" style="stroke:#0000ff; stroke-linecap:round; stroke-linejoin:round; stroke-width:15; stroke-opacity:0.2; fill:none" points="224.839,173.41 373.299,173.41 "/>
<path clip-path="url(#clip360)" d="M416.062 175.849 L416.062 177.411 L401.375 177.411 Q401.583 180.71 403.354 182.446 Q405.142 184.165 408.319 184.165 Q410.16 184.165 411.878 183.713 Q413.615 183.262 415.316 182.359 L415.316 185.38 Q413.597 186.109 411.792 186.491 Q409.986 186.873 408.128 186.873 Q403.476 186.873 400.75 184.165 Q398.042 181.456 398.042 176.838 Q398.042 172.064 400.611 169.269 Q403.198 166.456 407.573 166.456 Q411.497 166.456 413.771 168.991 Q416.062 171.509 416.062 175.849 M412.868 174.911 Q412.833 172.29 411.392 170.727 Q409.969 169.165 407.608 169.165 Q404.934 169.165 403.319 170.675 Q401.722 172.186 401.479 174.929 L412.868 174.911 Z" fill="#000000" fill-rule="nonzero" fill-opacity="1" /><path clip-path="url(#clip360)" d="M437.469 174.634 L437.469 186.37 L434.274 186.37 L434.274 174.738 Q434.274 171.977 433.198 170.606 Q432.121 169.234 429.969 169.234 Q427.382 169.234 425.889 170.884 Q424.396 172.533 424.396 175.38 L424.396 186.37 L421.184 186.37 L421.184 166.925 L424.396 166.925 L424.396 169.946 Q425.542 168.193 427.087 167.325 Q428.649 166.456 430.68 166.456 Q434.031 166.456 435.75 168.54 Q437.469 170.606 437.469 174.634 Z" fill="#000000" fill-rule="nonzero" fill-opacity="1" /><path clip-path="url(#clip360)" d="M456.635 169.877 L456.635 159.356 L459.83 159.356 L459.83 186.37 L456.635 186.37 L456.635 183.453 Q455.628 185.189 454.083 186.04 Q452.555 186.873 450.403 186.873 Q446.878 186.873 444.656 184.061 Q442.451 181.248 442.451 176.665 Q442.451 172.081 444.656 169.269 Q446.878 166.456 450.403 166.456 Q452.555 166.456 454.083 167.307 Q455.628 168.14 456.635 169.877 M445.75 176.665 Q445.75 180.189 447.191 182.203 Q448.649 184.199 451.184 184.199 Q453.719 184.199 455.177 182.203 Q456.635 180.189 456.635 176.665 Q456.635 173.14 455.177 171.144 Q453.719 169.13 451.184 169.13 Q448.649 169.13 447.191 171.144 Q445.75 173.14 445.75 176.665 Z" fill="#000000" fill-rule="nonzero" fill-opacity="1" /><path clip-path="url(#clip360)" d="M490.507 169.877 L490.507 159.356 L493.701 159.356 L493.701 186.37 L490.507 186.37 L490.507 183.453 Q489.5 185.189 487.954 186.04 Q486.427 186.873 484.274 186.873 Q480.75 186.873 478.527 184.061 Q476.323 181.248 476.323 176.665 Q476.323 172.081 478.527 169.269 Q480.75 166.456 484.274 166.456 Q486.427 166.456 487.954 167.307 Q489.5 168.14 490.507 169.877 M479.621 176.665 Q479.621 180.189 481.062 182.203 Q482.52 184.199 485.055 184.199 Q487.59 184.199 489.048 182.203 Q490.507 180.189 490.507 176.665 Q490.507 173.14 489.048 171.144 Q487.59 169.13 485.055 169.13 Q482.52 169.13 481.062 171.144 Q479.621 173.14 479.621 176.665 Z" fill="#000000" fill-rule="nonzero" fill-opacity="1" /><path clip-path="url(#clip360)" d="M509.118 176.595 Q505.246 176.595 503.753 177.481 Q502.26 178.366 502.26 180.502 Q502.26 182.203 503.371 183.21 Q504.499 184.199 506.427 184.199 Q509.083 184.199 510.68 182.324 Q512.295 180.432 512.295 177.307 L512.295 176.595 L509.118 176.595 M515.489 175.276 L515.489 186.37 L512.295 186.37 L512.295 183.418 Q511.201 185.189 509.569 186.04 Q507.937 186.873 505.576 186.873 Q502.59 186.873 500.819 185.206 Q499.065 183.522 499.065 180.71 Q499.065 177.429 501.253 175.762 Q503.458 174.095 507.815 174.095 L512.295 174.095 L512.295 173.783 Q512.295 171.578 510.836 170.38 Q509.395 169.165 506.774 169.165 Q505.107 169.165 503.527 169.564 Q501.947 169.963 500.489 170.762 L500.489 167.811 Q502.243 167.134 503.892 166.804 Q505.541 166.456 507.104 166.456 Q511.322 166.456 513.406 168.644 Q515.489 170.831 515.489 175.276 Z" fill="#000000" fill-rule="nonzero" fill-opacity="1" /><path clip-path="url(#clip360)" d="M525.229 161.404 L525.229 166.925 L531.808 166.925 L531.808 169.408 L525.229 169.408 L525.229 179.963 Q525.229 182.342 525.871 183.019 Q526.531 183.696 528.527 183.696 L531.808 183.696 L531.808 186.37 L528.527 186.37 Q524.829 186.37 523.423 184.998 Q522.017 183.609 522.017 179.963 L522.017 169.408 L519.673 169.408 L519.673 166.925 L522.017 166.925 L522.017 161.404 L525.229 161.404 Z" fill="#000000" fill-rule="nonzero" fill-opacity="1" /><path clip-path="url(#clip360)" d="M552.642 175.849 L552.642 177.411 L537.954 177.411 Q538.163 180.71 539.933 182.446 Q541.722 184.165 544.899 184.165 Q546.739 184.165 548.458 183.713 Q550.194 183.262 551.895 182.359 L551.895 185.38 Q550.176 186.109 548.371 186.491 Q546.565 186.873 544.708 186.873 Q540.055 186.873 537.329 184.165 Q534.621 181.456 534.621 176.838 Q534.621 172.064 537.19 169.269 Q539.777 166.456 544.152 166.456 Q548.076 166.456 550.35 168.991 Q552.642 171.509 552.642 175.849 M549.447 174.911 Q549.412 172.29 547.971 170.727 Q546.548 169.165 544.187 169.165 Q541.513 169.165 539.899 170.675 Q538.301 172.186 538.058 174.929 L549.447 174.911 Z" fill="#000000" fill-rule="nonzero" fill-opacity="1" /><path clip-path="url(#clip360)" d="M576.721 169.165 Q574.152 169.165 572.659 171.179 Q571.166 173.175 571.166 176.665 Q571.166 180.154 572.641 182.168 Q574.135 184.165 576.721 184.165 Q579.273 184.165 580.766 182.151 Q582.259 180.137 582.259 176.665 Q582.259 173.21 580.766 171.196 Q579.273 169.165 576.721 169.165 M576.721 166.456 Q580.888 166.456 583.266 169.165 Q585.645 171.873 585.645 176.665 Q585.645 181.439 583.266 184.165 Q580.888 186.873 576.721 186.873 Q572.537 186.873 570.159 184.165 Q567.798 181.439 567.798 176.665 Q567.798 171.873 570.159 169.165 Q572.537 166.456 576.721 166.456 Z" fill="#000000" fill-rule="nonzero" fill-opacity="1" /><path clip-path="url(#clip360)" d="M600.784 159.356 L600.784 162.012 L597.728 162.012 Q596.009 162.012 595.332 162.706 Q594.673 163.401 594.673 165.206 L594.673 166.925 L599.933 166.925 L599.933 169.408 L594.673 169.408 L594.673 186.37 L591.461 186.37 L591.461 169.408 L588.405 169.408 L588.405 166.925 L591.461 166.925 L591.461 165.571 Q591.461 162.325 592.971 160.849 Q594.482 159.356 597.763 159.356 L600.784 159.356 Z" fill="#000000" fill-rule="nonzero" fill-opacity="1" /><path clip-path="url(#clip360)" d="M627.155 167.498 L627.155 170.519 Q625.801 169.825 624.343 169.477 Q622.884 169.13 621.322 169.13 Q618.943 169.13 617.745 169.859 Q616.565 170.588 616.565 172.047 Q616.565 173.158 617.416 173.8 Q618.266 174.425 620.836 174.998 L621.929 175.241 Q625.332 175.97 626.756 177.307 Q628.197 178.627 628.197 181.005 Q628.197 183.713 626.044 185.293 Q623.909 186.873 620.159 186.873 Q618.596 186.873 616.895 186.561 Q615.211 186.265 613.336 185.658 L613.336 182.359 Q615.107 183.279 616.825 183.748 Q618.544 184.199 620.228 184.199 Q622.485 184.199 623.7 183.436 Q624.916 182.654 624.916 181.248 Q624.916 179.946 624.03 179.252 Q623.162 178.557 620.193 177.915 L619.082 177.654 Q616.113 177.029 614.794 175.745 Q613.475 174.443 613.475 172.186 Q613.475 169.443 615.419 167.95 Q617.363 166.456 620.94 166.456 Q622.711 166.456 624.273 166.717 Q625.836 166.977 627.155 167.498 Z" fill="#000000" fill-rule="nonzero" fill-opacity="1" /><path clip-path="url(#clip360)" d="M642.12 176.595 Q638.249 176.595 636.756 177.481 Q635.263 178.366 635.263 180.502 Q635.263 182.203 636.374 183.21 Q637.502 184.199 639.429 184.199 Q642.086 184.199 643.683 182.324 Q645.297 180.432 645.297 177.307 L645.297 176.595 L642.12 176.595 M648.492 175.276 L648.492 186.37 L645.297 186.37 L645.297 183.418 Q644.204 185.189 642.572 186.04 Q640.94 186.873 638.579 186.873 Q635.593 186.873 633.822 185.206 Q632.068 183.522 632.068 180.71 Q632.068 177.429 634.256 175.762 Q636.461 174.095 640.818 174.095 L645.297 174.095 L645.297 173.783 Q645.297 171.578 643.839 170.38 Q642.398 169.165 639.777 169.165 Q638.11 169.165 636.53 169.564 Q634.95 169.963 633.492 170.762 L633.492 167.811 Q635.245 167.134 636.895 166.804 Q638.544 166.456 640.106 166.456 Q644.325 166.456 646.408 168.644 Q648.492 170.831 648.492 175.276 Z" fill="#000000" fill-rule="nonzero" fill-opacity="1" /><path clip-path="url(#clip360)" d="M670.21 170.658 Q671.408 168.505 673.075 167.481 Q674.742 166.456 676.999 166.456 Q680.037 166.456 681.686 168.592 Q683.335 170.71 683.335 174.634 L683.335 186.37 L680.124 186.37 L680.124 174.738 Q680.124 171.943 679.134 170.588 Q678.144 169.234 676.113 169.234 Q673.631 169.234 672.19 170.884 Q670.749 172.533 670.749 175.38 L670.749 186.37 L667.537 186.37 L667.537 174.738 Q667.537 171.925 666.547 170.588 Q665.558 169.234 663.492 169.234 Q661.044 169.234 659.603 170.901 Q658.162 172.55 658.162 175.38 L658.162 186.37 L654.95 186.37 L654.95 166.925 L658.162 166.925 L658.162 169.946 Q659.256 168.158 660.783 167.307 Q662.311 166.456 664.412 166.456 Q666.53 166.456 668.006 167.533 Q669.499 168.609 670.21 170.658 Z" fill="#000000" fill-rule="nonzero" fill-opacity="1" /><path clip-path="url(#clip360)" d="M692.797 183.453 L692.797 193.765 L689.585 193.765 L689.585 166.925 L692.797 166.925 L692.797 169.877 Q693.804 168.14 695.332 167.307 Q696.877 166.456 699.012 166.456 Q702.554 166.456 704.759 169.269 Q706.981 172.081 706.981 176.665 Q706.981 181.248 704.759 184.061 Q702.554 186.873 699.012 186.873 Q696.877 186.873 695.332 186.04 Q693.804 185.189 692.797 183.453 M703.665 176.665 Q703.665 173.14 702.207 171.144 Q700.766 169.13 698.231 169.13 Q695.696 169.13 694.238 171.144 Q692.797 173.14 692.797 176.665 Q692.797 180.189 694.238 182.203 Q695.696 184.199 698.231 184.199 Q700.766 184.199 702.207 182.203 Q703.665 180.189 703.665 176.665 Z" fill="#000000" fill-rule="nonzero" fill-opacity="1" /><path clip-path="url(#clip360)" d="M712.276 159.356 L715.471 159.356 L715.471 186.37 L712.276 186.37 L712.276 159.356 Z" fill="#000000" fill-rule="nonzero" fill-opacity="1" /><path clip-path="url(#clip360)" d="M738.786 175.849 L738.786 177.411 L724.099 177.411 Q724.307 180.71 726.078 182.446 Q727.866 184.165 731.043 184.165 Q732.884 184.165 734.602 183.713 Q736.339 183.262 738.04 182.359 L738.04 185.38 Q736.321 186.109 734.516 186.491 Q732.71 186.873 730.852 186.873 Q726.2 186.873 723.474 184.165 Q720.766 181.456 720.766 176.838 Q720.766 172.064 723.335 169.269 Q725.922 166.456 730.297 166.456 Q734.22 166.456 736.495 168.991 Q738.786 171.509 738.786 175.849 M735.592 174.911 Q735.557 172.29 734.116 170.727 Q732.693 169.165 730.332 169.165 Q727.658 169.165 726.043 170.675 Q724.446 172.186 724.203 174.929 L735.592 174.911 Z" fill="#000000" fill-rule="nonzero" fill-opacity="1" /><path clip-path="url(#clip360)" d="M756.391 183.418 L762.12 183.418 L762.12 163.644 L755.887 164.894 L755.887 161.7 L762.085 160.45 L765.592 160.45 L765.592 183.418 L771.321 183.418 L771.321 186.37 L756.391 186.37 L756.391 183.418 Z" fill="#000000" fill-rule="nonzero" fill-opacity="1" /></svg>
